<svg version="1.2" baseProfile="tiny-ps" xmlns="http://www.w3.org/2000/svg" viewBox="0 0 666 362" width="666" height="362"><title>3809538-ai</title><style>tspan { white-space:pre }.s0 { fill: #a59b4e } .s1 { fill: #ffffff } .s2 { fill: #d8d25d } .s3 { fill: #a3a048 } .s4 { fill: #7c7239 } .s5 { fill: #e2e09f } .s6 { fill: #f9f9a0 } .s7 { fill: #cccc6a } .s8 { fill: #8ca848 } .s9 { fill: #bdd36e } .s10 { fill: #aaa76d } .s11 { fill: #3d0505 } .s12 { fill: #b5a954 } .s13 { fill: #738736 } .s14 { fill: #9eaa46 } </style><g ><path class="s0" d="m521.17 59.62c0.21 0.15 0.47 0.37 0.73 0.64c0.43 0.43 0.82 0.99 1.07 1.4c-0.12 0.14-0.26 0.3-0.46 0.46c-0.44 0.4-1.09 0.75-1.35 0.85l-0.25-0.09c-0.3-0.12-0.71-0.31-1.12-0.53c-0.11-0.06-0.22-0.12-0.33-0.18c0.4-0.71 0.86-1.5 1.31-2.08c0.14-0.19 0.27-0.34 0.4-0.46z" /><path class="s1" d="m554 33.25c0 2.21 1.79 4 4 4c2.21 0 4-1.79 4-4c0-0.01-0.01-0.02-0.01-0.04c2.46-0.06 4.94-0.23 7.28-0.78c-0.52 1.54-1.45 2.96-2.81 4.13c-2.08 1.79-5.04 2.95-8.36 2.95c-3.3 0-6.25-1.16-8.33-2.95c-1.51-1.3-2.53-2.89-2.99-4.63c2.28 0.74 4.68 1.07 7.23 1.21c0 0.04-0.02 0.07-0.02 0.1z" /><path class="s2" d="m435.32 352.22c0.37-2.65 1.17-5.92 2.55-8.28c0.92-1.58 2.03-2.69 3.36-3.24c0.51-0.21 1.05-0.31 1.67-0.31c1.34-0.01 3.08 0.53 4.94 1.58c1.87 1.04 3.84 2.54 5.71 4.25c2.9 2.64 5.53 5.77 7.33 8.34c-5.54 1.68-10.77 2.48-15.52 2.48c-3.8 0-7.27-0.51-10.39-1.43c0-0.03 0-0.04 0-0.06c0.05-0.83 0.14-1.99 0.34-3.32z" /><path class="s3" d="m546.97 27.14c0.59-1.66 1.71-3.16 3.28-4.35c2.04-1.56 4.8-2.54 7.86-2.54c3.21 0 6.07 1.07 8.14 2.74c1.61 1.31 2.7 2.94 3.19 4.75c-2.94 0.92-7.06 1.04-11.19 1.01c-4.72 0.01-8.29-0.34-11.28-1.61z" /><path class="s4" d="m631.28 32.23l0.25-0.03c0.39-0.02 1.25 0.31 2.14 1.31c0.89 0.98 1.74 2.52 2.23 4.34c0.29 1.08 0.42 2.13 0.42 3.08c0 1.31-0.26 2.41-0.62 3.1c-0.37 0.71-0.71 0.92-0.98 1l-0.25 0.03c-0.39 0.02-1.25-0.31-2.14-1.31c-0.89-0.98-1.74-2.52-2.23-4.34c-0.29-1.08-0.42-2.13-0.42-3.08c0-1.31 0.26-2.41 0.62-3.1c0.37-0.71 0.71-0.92 0.98-1z" /><path class="s5" d="m432.71 242.85c2.64-0.36 5.76-0.69 8.79-0.87c0.03 0.03 0.03 0.03 0.06 0.06c0.18 0.36 0.48 0.87 0.84 1.5c0.69 1.29 1.68 3.09 2.7 5.1c0.3 0.6 0.6 1.2 0.9 1.83c1.77 3.57 3.54 7.59 4.35 10.59c-2.52 1.65-5.07 3.27-7.68 4.86c-1.89-3-3.87-6.15-5.76-9.21c-2.97-4.8-5.82-9.45-8.16-13.29c1.08-0.18 2.46-0.36 3.96-0.57z" /><path class="s6" d="m463.28 336.96c0.09-0.3 0.18-0.54 0.3-0.78c0.33-0.72 0.75-1.17 1.44-1.56c0.72-0.36 1.98-0.63 3.54-0.63c2.7 0 6.18 0.72 9.39 1.59c0.42 0.27 0.9 0.42 1.41 0.39c2.49 0.72 4.71 1.53 6.21 2.1c-0.36 0.51-0.69 0.99-1.08 1.5c-0.9 1.2-1.95 2.37-3.15 3.57c-3.42 3.39-8.01 6.6-13.98 9.09c-0.93-1.59-1.89-3.54-2.64-5.52c-1.02-2.67-1.68-5.46-1.68-7.65c0-0.81 0.09-1.53 0.24-2.1z" /><path fill-rule="evenodd" class="s7" d="m457.49 204.57c2.43-3.21 4.11-5.91 5.16-8.13c5.04-7.32 8.37-15.42 11.19-23.55c1.74-5.07 3.21-10.23 4.53-15.39c2.19-0.06 5.91-0.24 8.97-0.99c1.26-0.33 2.46-0.75 3.51-1.53c0.99-0.75 1.59-1.74 2.1-2.79c0.48-1.05 0.84-2.25 1.14-3.51c0.57-2.52 0.87-5.37 0.87-7.95c-0.03-2.16-0.18-4.11-0.69-5.7c-0.51-1.44-1.38-2.67-2.37-3.9c-0.99-1.2-2.13-2.37-3.24-3.39c-1.41-1.29-2.7-2.37-3.48-3c0.18-0.96 0.36-1.95 0.51-2.94c1.38-0.06 3.54-0.21 5.46-0.51c1.05-0.15 2.01-0.36 2.91-0.69c1.74-0.69 2.91-2.04 3.69-3.48c0.81-1.47 1.23-3.09 1.23-4.77c0-0.54-0.03-1.08-0.15-1.62c-0.39-1.56-1.29-2.43-2.19-3.24c-0.93-0.81-1.98-1.53-3.03-2.13c-2.04-1.2-3.9-2.01-3.96-2.04c-0.27-0.12-0.51-0.15-0.78-0.18c0.3-1.71 0.63-3.36 1.02-5.07c0.06-0.36 0.12-0.72 0.18-1.08c0.87 0.21 1.8 0.36 2.85 0.51c1.98 0.27 4.2 0.45 6.33 0.45c1.29 0 2.58-0.06 3.75-0.24c1.2-0.18 2.28-0.42 3.3-0.9c0.66-0.33 1.32-0.81 1.86-1.59c0.36-0.6 0.72-1.35 1.17-2.4c0.45-1.05 0.96-2.34 1.44-3.72c0.93-2.82 1.77-6.06 1.8-9.06c-0.03-1.56-0.24-3.12-1.08-4.53c-0.54-0.87-1.23-1.56-2.04-2.25c-0.81-0.69-1.74-1.35-2.76-2.04c-2.04-1.32-4.44-2.64-6.72-3.84c-3.12-1.59-6-2.94-7.59-3.63c0.03-0.21 0.03-0.39 0.06-0.57c0.42-4.56 1.08-9.09 1.98-13.56c0.06 0.06 0.12 0.12 0.18 0.18c0.54 0.57 1.14 1.08 1.98 1.5c0.45 0.24 1.02 0.45 1.74 0.45c0.54 0 0.81-0.09 1.23-0.18c0.39-0.09 0.87-0.21 1.38-0.36c1.05-0.33 2.34-0.75 3.78-1.26c2.88-1.02 6.36-2.34 9.36-3.69c2.01-0.93 3.81-1.8 5.16-2.7c0.78-0.51 1.44-0.96 2.04-1.71c0.27-0.39 0.66-0.96 0.66-1.89v-0.21c-0.06-0.78-0.27-1.53-0.6-2.61c-0.3-1.05-0.72-2.31-1.23-3.66c-0.99-2.76-2.28-5.91-3.6-8.58c-0.87-1.8-1.74-3.33-2.7-4.53c-0.57-0.66-1.11-1.29-2.22-1.68c-0.6-0.21-1.17-0.27-1.71-0.27c-0.87 0-1.71 0.18-2.52 0.42c1.38-1.56 2.88-3 4.56-4.23c1.65-1.44 3.63-2.46 5.46-3.63c0.63-0.3 1.26-0.6 1.89-0.9c0.09 0.21 0.18 0.42 0.27 0.66c0.66 1.38 1.59 3.12 2.82 4.68c0.84 1.02 1.83 1.98 3.18 2.58c1.17 0.51 2.4 0.66 3.63 0.69c2.1-0.03 4.29-0.51 6.24-1.2c1.95-0.72 3.66-1.56 4.92-2.7c0.78-0.72 1.17-1.59 1.38-2.37c0.21-0.81 0.27-1.62 0.27-2.43c0-1.86-0.36-3.78-0.69-5.28c-0.03-0.06-0.03-0.09-0.03-0.15c2.85-0.21 5.73-0.27 8.55-0.12l13.74 1.38c0.54 0.06 1.11 0.12 1.65 0.15c0.45 0.48 1.11 1.17 1.98 2.01c1.5 1.38 3.42 3.09 5.49 4.32c1.41 0.78 2.85 1.47 4.59 1.5c0.42 0 0.9-0.06 1.38-0.21c2.4-0.69 4.68-2.13 6.45-3.36c1.77-1.23 3-2.31 3.03-2.34c0-0.02 0-0.03 0-0.03c1.08 0.09 2.13 0.18 3.18 0.24c4.65 0.27 9.3 0.51 14.04 0.54c4.74-0.06 9.12-0.12 13.56 0.51c8.82 1.05 17.01 5.01 23.13 11.37c6.24 6.24 10.5 14.43 13.8 22.8c3.33 8.4 5.25 17.34 5.73 26.31c0.06 1.71 0.06 3.45 0 5.16c-0.09 2.76-0.33 5.52-0.75 8.22c-0.72 4.32-1.83 8.85-3.9 12.3c-0.51 0.9-1.02 1.38-1.74 1.98c-0.78 0.57-1.68 1.11-2.64 1.62c-1.92 0.96-4.02 1.83-6.12 2.58c-4.17 1.53-8.52 2.79-12.84 3.9c-2.55-0.09-5.1 0-7.65-0.09l-3.9-0.33c-1.29-0.06-2.58-0.18-3.84-0.39c-5.19-0.54-10.17-2.01-15.06-3.57c-4.86-1.77-9.51-4.05-13.83-6.9c-4.32-2.88-8.4-5.97-12.78-9.36c1.95 5.28 5.97 9.45 10.35 12.78c4.44 3.3 9.33 6.09 14.52 8.1c2.61 0.93 5.22 1.95 7.95 2.49c1.35 0.3 2.7 0.66 4.05 0.93l4.14 0.6c2.73 0.54 5.52 0.39 8.25 0.57c0.87 0 1.77-0.03 2.64-0.06c-5.28 5.37-11.1 10.32-17.49 13.98c-3.96 2.19-8.22 3.99-12.45 3.66c-4.38-0.21-8.91-1.53-13.29-3.09c-8.76-3.24-17.31-7.5-25.32-12.54l-6.06-3.75c-0.42-0.27-1.11-0.6-1.38-0.84c-0.3-0.21-0.63-0.48-0.93-0.84c-0.63-0.63-1.17-1.56-1.65-2.49c-1.83-3.99-2.82-8.76-3.69-13.5c-0.9 4.8-1.11 9.75 0.3 14.79c0.45 1.26 0.93 2.52 1.8 3.75c0.39 0.63 0.96 1.2 1.59 1.71c0.63 0.54 1.05 0.78 1.56 1.17c2.01 1.38 4.11 2.58 6.21 3.78c3.3 1.8 6.63 3.6 9.96 5.34c-3.84 0.21-7.71 0.42-11.55 0.69c-1.56 0.12-3.15 0.21-4.68 0.24c-1.62 0.06-2.85 0.06-4.26-0.33c-2.85-0.72-5.67-2.16-8.43-3.75c1.95 2.55 4.44 4.77 7.56 6.21c1.56 0.72 3.51 1.02 5.07 1.05c1.62 0.12 3.21 0.18 4.8 0.24c1.17 0.03 2.34 0.03 3.54 0.03c-0.21 0.51-0.45 1.08-0.72 1.74c-1.11 2.64-2.82 6.48-5.13 11.25c-4.62 9.54-11.64 22.8-21.33 37.65c-15.06 23.07-36.57 49.92-65.22 72.54c-0.72-0.93-1.71-2.1-2.94-3.39c-1.53-1.59-3.39-3.33-5.52-4.77c-1.44-0.99-3.03-1.86-4.71-2.43c-2.22-0.75-4.92-0.96-7.92-0.96c-7.44 0-16.62 1.41-19.89 1.95c-0.51-0.81-0.96-1.56-1.35-2.19c-0.39-0.69-0.72-1.2-1.02-1.68c16.29-11.43 27.39-22.65 33.63-30.81zm54.42-108.48c-0.03 0.03-2.64 2.64-4.32 4.8c-0.57 0.75-1.05 1.35-1.41 2.25c-0.09 0.27-0.18 0.57-0.18 1.05l0.03 0.42c0.09 0.57 0.27 0.87 0.45 1.17c0.18 0.27 0.36 0.48 0.54 0.72c0.39 0.42 0.81 0.84 1.32 1.26c1.02 0.84 2.22 1.65 3.54 2.25c0.87 0.39 1.8 0.69 2.88 0.72c0.42 0 0.9-0.06 1.38-0.24c1.41-0.54 2.52-1.5 3.42-2.67c0.87-1.2 1.53-2.61 1.56-4.32c0-0.75-0.18-1.56-0.54-2.31c-0.93-1.77-2.37-2.94-3.63-3.9c-1.23-0.93-2.28-1.53-2.34-1.56c-0.87-0.51-1.98-0.36-2.7 0.36zm15.51-35.58c-0.36-0.9-0.9-1.71-1.56-2.55c-0.66-0.84-1.44-1.62-2.4-2.25c-0.66-0.39-1.38-0.78-2.46-0.78l-0.57 0.03c-0.75 0.15-1.26 0.45-1.68 0.78c-0.39 0.3-0.75 0.66-1.05 1.02c-0.63 0.72-1.17 1.5-1.65 2.28c-0.93 1.56-1.56 2.97-1.59 3.03c-0.48 0.99-0.12 2.19 0.78 2.79c0.06 0.06 1.98 1.32 3.78 2.1c0.66 0.27 1.23 0.51 2.16 0.54c0.72 0 1.2-0.18 1.68-0.36c0.48-0.21 0.93-0.45 1.38-0.72c0.9-0.6 1.77-1.29 2.46-2.22c0.45-0.63 0.9-1.41 0.93-2.52c0-0.39-0.06-0.78-0.21-1.17zm46.83-30.72l-0.03-0.72v-0.06c-0.27-3.81-2.25-7.17-5.13-9.51c-2.91-2.37-6.78-3.75-10.98-3.75c-4.02 0-7.74 1.29-10.59 3.45c-2.85 2.19-4.89 5.31-5.4 8.88v0.03c-0.09 0.6-0.12 1.17-0.12 1.77c0 3.99 1.92 7.59 4.86 10.11c2.91 2.52 6.9 4.02 11.25 4.02c4.35 0 8.34-1.5 11.28-4.02c2.94-2.52 4.86-6.12 4.86-10.11v-0.09zm66 6.9c-0.66-2.46-1.8-4.59-3.24-6.21c-1.44-1.56-3.27-2.76-5.49-2.79c-0.45 0-0.93 0.06-1.41 0.18c-1.77 0.48-3.06 1.83-3.81 3.3c-0.78 1.53-1.11 3.27-1.11 5.16c0 1.35 0.18 2.79 0.57 4.23c0.66 2.46 1.77 4.59 3.24 6.21c1.44 1.56 3.27 2.76 5.46 2.79c0.48 0 0.96-0.06 1.41-0.18h0.03c1.77-0.48 3.06-1.83 3.81-3.3c0.78-1.53 1.11-3.27 1.11-5.16c0-1.35-0.18-2.79-0.57-4.23z" /><path class="s6" d="m480.84 331.73c-0.73-2.06-1.03-3.7-1.03-4.92c0.01-1.41 0.33-2.28 0.75-2.93c0.43-0.65 1.02-1.12 1.74-1.48c1.42-0.73 3.3-0.86 3.89-0.85l0.19 0v0c0.21 0.01 0.4-0.04 0.59-0.08c0.12 0.14 0.28 0.3 0.4 0.43c1.01 1.15 1.67 2.13 1.81 2.49c0.26 0.57 0.44 1.45 0.44 2.55c0.01 1.9-0.56 4.41-1.82 7.15c-1.27-0.49-3.29-1.24-5.68-2c-0.41-0.13-0.86-0.25-1.28-0.38z" /><path class="s5" d="m452.57 242.49c0.81 0.27 1.65 0.66 2.49 1.17c1.98 1.14 3.93 2.82 5.52 4.44c1.29 1.35 2.34 2.58 3.09 3.51c-3.06 2.34-6.24 4.62-9.45 6.84c-1.11-3.45-2.85-7.29-4.53-10.68c-0.18-0.39-0.39-0.78-0.57-1.17c-0.96-1.86-1.86-3.51-2.55-4.8c2.55 0.03 4.8 0.27 6 0.69z" /><path class="s0" d="m577.24 9.29c-0.3 0.02-1.14-0.22-2.09-0.77c-0.84-0.48-1.78-1.16-2.67-1.89c2.93 0.26 5.86 0.5 8.8 0.73c-1.31 0.83-2.75 1.59-3.9 1.91l-0.14 0.01z" /><path class="s0" d="m513.83 100.59c0.14 0.1 0.28 0.2 0.43 0.31c1.01 0.73 2.08 1.8 2.29 2.3l0.06 0.31c0.02 0.33-0.21 1.03-0.67 1.62c-0.4 0.56-0.97 0.97-1.26 1.09c-0.19-0.02-0.83-0.2-1.49-0.57c-0.76-0.41-1.58-0.99-2.16-1.5c-0.06-0.05-0.1-0.1-0.15-0.15c0.21-0.29 0.46-0.61 0.76-0.97c0.7-0.84 1.52-1.72 2.2-2.44z" /><path class="s8" d="m158.33 246.96c0.27-0.81 0.72-2.04 1.29-3.54c1.11-3.03 2.76-7.32 4.77-12.3c4.08-9.99 9.75-22.71 16.08-33.75c1.62-2.82 3.3-5.52 5.01-8.04c2.7-4.05 5.49-7.62 8.25-10.35c3.09-3.12 7.92-6 13.8-8.46c5.91-2.49 12.87-4.56 20.25-6.21c14.79-3.3 31.29-4.89 44.55-4.89c4.86 0 9.3 0.21 13.02 0.63c3.72 0.42 6.75 1.05 8.73 1.8c1.32 0.48 3.18 1.83 5.16 3.9c1.98 2.04 4.14 4.8 6.39 8.04c4.44 6.48 9.18 14.82 13.62 23.49c2.67 5.19 5.25 10.53 7.62 15.6c5.58 11.88 10.08 22.53 12.21 27.66c0.21 0.51 0.39 0.96 0.54 1.38c-19.65 5.88-42.75 10.53-69.81 12.84c-11.01 0.93-21.66 1.38-31.89 1.38c-30.3 0-57-3.78-79.62-9.09c0-0.03 0-0.06 0.03-0.09z" /><path class="s9" d="m152.93 151.02c-2.4-2.01-6.33-4.62-10.89-7.53c-0.99-0.6-1.98-1.23-3-1.86c-3.81-2.34-7.89-4.74-11.79-7.02c-7.56-4.41-14.46-8.25-17.28-9.81c2.52-3.75 5.13-7.5 7.95-11.22c0.12 0.06 0.18 0.09 0.3 0.15c0.84 0.45 2.04 1.08 3.48 1.83c2.88 1.53 6.78 3.57 11.13 5.79c0.69 0.36 1.38 0.69 2.1 1.05c8.22 4.14 17.58 8.61 24.6 10.98c1.89 0.63 3.96 0.9 6.24 0.9c6.3-0.03 14.07-1.98 21.96-4.77c7.86-2.79 15.84-6.48 22.26-10.08c4.32-2.43 7.92-4.8 10.44-6.93c1.47-1.23 2.55-2.37 3.3-3.66c0.6-1.11 0.93-2.4 1.26-3.96c0.3-1.56 0.54-3.39 0.72-5.46c0.36-4.14 0.51-9.21 0.51-14.64c0-13.5-0.93-29.25-2.07-38.4c-0.27-2.04-0.51-3.69-0.81-5.04c8.22-2.1 16.8-3.72 25.83-4.77c-0.51 4.17-1.5 12.45-2.49 21.81c-1.41 13.44-2.85 28.98-2.85 37.92c0 2.55 0.09 4.5 0.42 6.03c0.12 0.51 0.24 0.96 0.51 1.5c0.6 1.02 1.35 1.68 2.37 2.46c0.99 0.78 2.25 1.62 3.72 2.49c2.97 1.77 6.84 3.75 11.31 5.79c8.94 4.08 20.19 8.37 30.78 11.16c7.08 1.86 13.86 3.06 19.56 3.06c1.62 0 3.15-0.09 4.59-0.33c5.61-0.87 12.33-4.41 19.65-9.12c7.29-4.74 15.06-10.74 22.23-16.59c11.64-9.6 21.63-18.9 24.93-22.02c7.35 7.53 13.8 15.54 19.38 23.64c-3.36 1.77-11.25 6-20.25 11.43c-11.97 7.2-25.86 16.47-33.93 25.17c-5.34 5.82-7.26 14.43-7.29 24.21c0.03 11.1 2.55 23.91 6.3 36.42c0.84 2.76 1.71 5.49 2.64 8.16c3.09 8.97 6.66 17.49 10.26 24.78c-5.34 2.1-11.04 4.14-17.07 6.03c-1.62-4.02-6.3-15.24-12.36-28.2c-4.26-9.18-9.21-19.2-14.25-28.14c-4.65-8.28-9.39-15.6-13.89-20.58c-2.61-2.85-5.07-4.98-7.77-6c-2.55-0.96-5.85-1.62-9.81-2.07c-3.96-0.45-8.52-0.66-13.53-0.66c-20.43 0-47.85 3.63-66.54 11.43c-6.21 2.61-11.49 5.7-15.27 9.42c-3.06 3.12-6.06 6.96-8.94 11.28c-1.71 2.55-3.39 5.25-5.01 8.07c-4.32 7.56-8.31 15.78-11.73 23.43c-5.82 13.11-9.9 24.45-10.95 27.42c-7.95-1.98-15.39-4.14-22.23-6.39c3.48-6.66 14.22-27.33 21.33-42.39c2.88-6.06 5.13-11.13 6.15-14.25c1.14-3.54 1.95-7.02 2.25-10.44c0.09-0.96 0.15-1.92 0.15-2.88c0.03-6.96-2.52-13.59-8.61-18.6z" /><path class="s8" d="m366.11 90.78c-9.26 8.07-21.21 17.89-31.82 24.78c-7.04 4.6-13.6 7.85-17.87 8.47c-1.17 0.18-2.49 0.27-3.92 0.27c-7.08 0.01-16.89-2.2-26.62-5.34c-9.74-3.13-19.47-7.18-26.61-10.74c-4.74-2.35-8.4-4.57-9.91-5.9c-0.39-0.33-0.6-0.6-0.63-0.64l-0.01-0.03l-0.08-0.29c-0.06-0.27-0.12-0.66-0.17-1.15c-0.1-0.98-0.15-2.31-0.15-3.9c0-6.38 0.79-16.76 1.79-27.17c0.99-10.41 2.19-20.88 2.99-27.59c0.28-2.33 0.5-4.19 0.66-5.45c4.66-0.43 9.42-0.73 14.3-0.85c1.6-0.04 3.18-0.06 4.75-0.06c33.35 0.01 60.07 8.68 81.55 21.81c9.86 6.03 18.57 13.04 26.33 20.56c-0.76 0.72-1.83 1.72-3.19 2.98c-2.8 2.59-6.76 6.2-11.4 10.24z" /><path class="s8" d="m85.16 172.05c5.31-13.5 12.66-28.53 22.29-43.5c0.57 0.3 1.29 0.72 2.25 1.23c2.04 1.17 4.92 2.79 8.22 4.65c6.63 3.78 14.94 8.61 21.72 12.87c0.96 0.6 1.89 1.2 2.79 1.77c3.27 2.16 6 4.02 7.62 5.4c4.68 3.96 6.63 8.49 6.93 13.89c0.03 0.42 0.06 0.84 0.06 1.26c0 3.66-0.81 7.71-2.19 11.94c-0.63 1.98-2.07 5.34-3.93 9.42c-1.86 4.08-4.17 8.88-6.6 13.83c-4.89 9.93-10.32 20.52-13.89 27.39c-1.35 2.61-2.43 4.65-3.09 5.94c-30.21-10.38-48.63-21.9-53.01-24.78c0.6-8.88 3.99-23.82 10.83-41.31z" /><path class="s8" d="m140.54 88.05c20.52-19.77 46.38-36.48 78.45-45.57c0.21 1.14 0.45 2.64 0.69 4.47c0.36 2.94 0.72 6.66 1.02 10.8c0.6 8.25 1.02 18.18 1.02 27.03c0 8.01-0.36 15.21-1.17 19.23c-0.24 1.32-0.57 2.31-0.78 2.67c-0.15 0.3-0.66 0.93-1.41 1.65c-0.75 0.69-1.77 1.53-2.97 2.4c-2.46 1.77-5.7 3.78-9.42 5.76c-7.38 3.99-16.65 8.01-25.14 10.56c-5.64 1.68-10.98 2.73-15.06 2.73c-1.92 0-3.57-0.24-4.8-0.66c-6.06-2.04-14.43-5.94-22.05-9.75c-1.41-0.69-2.79-1.38-4.14-2.07c-5.97-3.03-11.1-5.79-13.86-7.23c-0.09-0.06-0.12-0.06-0.21-0.12c5.97-7.56 12.57-14.91 19.83-21.9z" /><path class="s0" d="m488.43 134c0.82 0.98 1.4 1.94 1.56 2.47c0.26 0.73 0.47 2.41 0.46 4.27c0 1.68-0.14 3.56-0.43 5.28c-0.28 1.72-0.71 3.29-1.18 4.3c-0.3 0.67-0.64 1.05-0.7 1.08c-0.22 0.18-0.96 0.52-1.92 0.76c-0.96 0.25-2.14 0.43-3.32 0.56c-1.18 0.13-2.37 0.2-3.39 0.25c0.56-2.36 1.1-4.73 1.62-7.1c1.16-5.31 2.18-10.65 3.15-15.99c1.34 1.17 2.96 2.69 4.14 4.13z" /><path class="s0" d="m509.87 22.92l0.17 0.02l0.05 0.04c0.16 0.17 0.41 0.48 0.69 0.9c0.56 0.83 1.23 2.06 1.9 3.45c1.35 2.79 2.71 6.24 3.63 8.93c0.45 1.3 0.8 2.45 0.98 3.17c-0.25 0.19-0.58 0.42-1.03 0.68c-1.26 0.74-3.12 1.64-5.16 2.52c-4.08 1.77-8.92 3.5-11.48 4.26c-0.49 0.15-0.91 0.25-1.17 0.31l-0.11-0.07c-0.26-0.2-0.65-0.58-1.01-1.01c-0.68-0.79-1.3-1.72-1.59-2.18c0.64-2.49 1.35-4.97 2.19-7.41c1.18-3.67 2.69-7.25 4.4-10.55c0.26-0.05 0.52-0.14 0.75-0.29l0.1-0.06l0.32-0.19c0.28-0.17 0.68-0.4 1.16-0.66c0.96-0.52 2.24-1.13 3.38-1.5c0.75-0.25 1.45-0.38 1.83-0.38z" /><path class="s0" d="m506.52 76.69c0.6 0.51 1.01 0.97 1.13 1.18c0.2 0.29 0.42 1.08 0.41 2.18c0.01 1.56-0.39 3.65-0.95 5.65c-0.56 2-1.29 3.95-1.89 5.33c-0.35 0.81-0.67 1.45-0.81 1.68l-0.12 0.07c-0.2 0.1-0.58 0.23-1.07 0.34c-0.99 0.22-2.43 0.33-3.97 0.33c-1.87 0-3.92-0.16-5.71-0.4c-1.07-0.14-2.03-0.33-2.8-0.51c0.06-0.55 0.14-1.1 0.18-1.65c0.56-7.6 0.63-15.02 1.11-22.38c1.18 0.55 2.65 1.24 4.24 2.03c3.74 1.86 8.13 4.3 10.27 6.15z" /><path class="s0" d="m533.89 13.25c-1.56 0.56-3.35 0.93-4.72 0.92c-0.81 0-1.46-0.13-1.82-0.29c-0.33-0.14-0.86-0.55-1.4-1.19c-0.54-0.63-1.07-1.45-1.53-2.27c-0.42-0.75-0.77-1.49-1.05-2.12c0.02-0.01 0.04-0.02 0.05-0.02c4.13-1.61 8.53-2.61 12.96-3.22c0.1-0.01 0.21-0.02 0.32-0.04c0.06 0.22 0.11 0.45 0.17 0.71c0.3 1.31 0.59 2.99 0.59 4.26c0.01 0.81-0.15 1.42-0.21 1.5c-0.49 0.46-1.84 1.23-3.37 1.76z" /><path class="s0" d="m493.13 110.42c0.66 0.49 1.16 1.01 1.28 1.22l0.03 0.05l0.07 0.67c0.01 0.8-0.26 1.83-0.69 2.62c-0.43 0.8-1.01 1.3-1.36 1.42c-0.51 0.21-1.95 0.48-3.36 0.63c-0.9 0.1-1.8 0.17-2.59 0.23l1.62-9.71l0.26 0.12c0.33 0.16 0.8 0.38 1.34 0.66c1.07 0.55 2.43 1.33 3.42 2.09z" /><path class="s8" d="m352.4 144.03c6.48-7.02 17.82-15 28.44-21.63c10.65-6.63 20.58-11.97 24.48-14.01c0.18-0.09 0.33-0.18 0.48-0.27c22.29 33.99 30.09 68.4 31.32 74.37c-0.33 0.45-0.78 1.05-1.41 1.83c-0.21 0.27-0.42 0.54-0.66 0.81c-1.32 1.65-3.18 3.78-5.64 6.33c-5.79 5.97-14.85 14.1-27.87 22.56c-9.78 6.33-21.78 12.87-36.33 18.87c-3.48-7.02-6.96-15.24-9.99-23.91c-0.99-2.85-1.92-5.76-2.79-8.67c-3.66-12.24-6.12-24.72-6.12-35.13c0-9.24 1.95-16.71 6.09-21.15z" /><path class="s10" d="m196.94 291c0.67-3.55 1.12-6.86 1.35-8.77c5.98 0.57 12.13 1.03 18.44 1.38c-0.03 0.2-0.07 0.41-0.12 0.66c-0.19 1.06-0.47 2.54-0.85 4.23c-0.74 3.38-1.86 7.63-3.23 10.9c-0.83 2.03-1.82 3.62-2.58 4.34c-5.45-0.53-10.82-1.14-16.08-1.83c0.41-0.88 0.78-1.83 1.11-2.87c0.79-2.47 1.43-5.31 1.95-8.04z" /><path class="s10" d="m175.46 288.18c0.7-3.49 1.11-6.73 1.31-8.51c5.52 0.79 11.18 1.51 17.03 2.12c-0.11 0.86-0.25 1.96-0.44 3.27c-0.43 2.92-1.08 6.68-1.91 9.95c-0.55 2.17-1.2 4.14-1.83 5.38c-0.17 0.35-0.34 0.62-0.49 0.84c-5.78-0.82-11.44-1.73-16.95-2.73c0.45-0.83 0.85-1.7 1.21-2.65c0.88-2.37 1.55-5.08 2.07-7.67z" /><path class="s10" d="m219.26 293.23c1.1-4.23 1.77-8.03 1.99-9.39c6.78 0.31 13.74 0.49 20.88 0.52c-0.02 0.2-0.04 0.43-0.06 0.72c-0.08 0.88-0.21 2.13-0.38 3.58c-0.34 2.91-0.86 6.67-1.56 9.97c-0.46 2.2-1.02 4.2-1.59 5.52c-0.31 0.75-0.66 1.27-0.8 1.41c-0.01 0.01-0.02 0.03-0.03 0.04c-7.65-0.31-15.17-0.79-22.54-1.42c0.55-0.95 1.05-1.97 1.51-3.07c1.04-2.48 1.89-5.27 2.57-7.9z" /><path class="s7" d="m5.03 247.74c0.06-0.03 0.15-0.06 0.24-0.09c1.02-0.36 2.61-0.75 4.59-1.08c3.96-0.66 9.42-1.17 15.27-1.59c11.79-0.87 25.26-1.35 32.79-2.07c1.71-0.18 3.09-0.33 4.2-0.54c1.83 1.17 3.84 2.43 6.09 3.72c0.42 0.24 0.84 0.48 1.26 0.72c2.97 1.65 6.3 3.36 9.93 5.13c-3.48 0.36-7.68 0.84-11.94 1.29c-0.96 0.12-1.95 0.21-2.94 0.33c-0.39-0.06-0.78-0.03-1.14 0.12c-6.99 0.75-13.47 1.44-16.11 1.56c-2.73 0.15-5.34 0.21-7.86 0.21c-8.1 0-15.03-0.69-20.52-1.74c-5.49-1.08-9.57-2.52-11.94-3.93c-1.35-0.75-2.04-1.5-2.28-1.89c0.09-0.03 0.21-0.09 0.36-0.15z" /><path class="s10" d="m154.56 284.83c1.26-3.47 2.21-6.73 2.68-8.41c4.87 0.93 9.91 1.79 15.09 2.59c-0.01 0.05-0.01 0.09-0.02 0.14c-0.09 0.83-0.24 2.01-0.44 3.38c-0.4 2.74-1.03 6.26-1.9 9.3c-0.57 2.02-1.27 3.83-1.96 4.96c-0.21 0.35-0.41 0.61-0.59 0.81c-5.87-1.14-11.59-2.37-17.12-3.71c0.39-0.58 0.76-1.19 1.12-1.84c1.18-2.18 2.24-4.75 3.14-7.22z" /><path class="s10" d="m245.47 294.44c0.72-4.67 1.09-8.93 1.19-10.07c6.16-0.02 12.48-0.18 18.9-0.43c-0.01 0.1-0.01 0.19-0.02 0.31c-0.06 1.12-0.15 2.69-0.28 4.52c-0.26 3.66-0.67 8.35-1.28 12.37c-0.27 1.84-0.6 3.52-0.94 4.89c-1.28 0.01-2.57 0.05-3.84 0.05c-5.55 0-11.04-0.09-16.47-0.26c0.42-1 0.78-2.11 1.11-3.31c0.68-2.49 1.21-5.34 1.63-8.07z" /><path class="s6" d="m54.09 313.18c0.84 0 1.38 0.17 1.64 0.34c0.24 0.16 0.41 0.36 0.59 0.81c0.17 0.44 0.28 1.12 0.28 1.93c0.01 1.64-0.45 3.77-0.99 5.57c-0.54 1.8-1.15 3.3-1.38 3.85l-0.1 0.22c-0.08 0.18-0.09 0.36-0.12 0.55c-1.75 1.66-3.08 3.16-3.82 4.02c-1.06-0.79-2.08-1.58-3-2.36c-3.34-2.79-5.63-5.52-6.38-7.27c-0.42-0.95-0.57-1.73-0.58-2.42c0-0.01 0-0.02 0-0.03c0.14-0.05 0.29-0.07 0.43-0.15l0.2-0.12l0.6-0.35c0.52-0.29 1.28-0.71 2.18-1.16c1.8-0.91 4.19-2 6.44-2.7c1.5-0.47 2.94-0.75 4-0.74z" /><path class="s10" d="m152.81 275.54c-0.23 0.8-0.54 1.88-0.93 3.15c-0.83 2.66-1.99 6.06-3.29 8.93c-0.86 1.91-1.79 3.59-2.59 4.57c-0.18 0.22-0.33 0.37-0.48 0.51c-1.91-0.49-3.79-0.99-5.65-1.5c2.94-7.79 5.01-14.13 5.96-17.14c2.29 0.51 4.62 1 6.99 1.48z" /><path class="s7" d="m56.69 306c2.67-1.38 5.22-2.79 7.26-4.53h0.03c2.43-2.07 6.42-6.21 11.01-11.13c4.59-4.92 9.69-10.62 14.16-15.66c5.79-6.48 10.44-11.88 11.67-13.26c0.15-0.18 0.24-0.27 0.3-0.33c1.86 0.69 3.78 1.38 5.73 2.04c10.23 3.54 21.75 6.93 34.56 9.93c-0.3 0.99-0.72 2.28-1.23 3.84c-1.26 3.78-3.12 9.03-5.4 15c-5.58 14.58-13.95 33.3-22.95 44.13c-2.97 3.6-6 6.3-8.85 7.71c-2.55 1.26-5.46 2.01-8.61 2.28c0.24-0.78 0.54-1.68 0.84-2.7c0.75-2.49 1.53-5.49 1.56-8.31c0-1.14-0.15-2.28-0.54-3.39c-0.36-1.05-1.02-2.07-2.04-2.76c-0.06-0.06-0.12-0.12-0.18-0.15c-1.8-1.23-4.08-1.8-6.6-1.8c-3.69 0-7.92 1.35-11.85 4.38c0.12-0.87 0.18-1.74 0.18-2.67c0-1.83-0.24-3.72-1.11-5.46c-0.84-1.74-2.55-3.27-4.77-3.78c-0.72-0.18-1.44-0.24-2.13-0.24c-2.43 0-4.71 0.87-6.81 2.04c-0.21 0.09-0.39 0.24-0.6 0.36c0.42-1.65 0.78-3.48 0.78-5.28c0-1.2-0.15-2.37-0.57-3.51c-0.42-1.14-1.2-2.28-2.37-3.03c-1.29-0.81-2.7-1.05-4.08-1.05c-1.32 0-2.67 0.27-4.02 0.63c2.16-1.11 4.44-2.19 6.63-3.3z" /><path class="s6" d="m76.61 336.36c3.63-3.63 7.68-4.95 10.8-4.95c0.57 0 1.14 0.06 1.62 0.15c1.05 0.15 1.92 0.48 2.46 0.87c0.21 0.15 0.36 0.33 0.51 0.75c0.15 0.39 0.27 1.05 0.27 1.83c0 1.71-0.51 4.02-1.11 6.12c-0.54 1.98-1.17 3.69-1.5 4.95c-5.52-0.24-11.52-1.65-17.37-3.78c1.29-2.43 2.76-4.41 4.32-5.94z" /><path class="s6" d="m63.12 325.1c1.68-0.95 3.32-1.48 4.61-1.47c0.38 0 0.72 0.04 1.06 0.12c1.01 0.28 1.41 0.67 1.84 1.45c0.41 0.78 0.64 2.03 0.63 3.44c0.02 3.38-1.25 7.44-1.55 8.3l-0.06 0.17c-0.11 0.3-0.15 0.61-0.13 0.91c-0.51 0.8-0.96 1.71-1.42 2.62c-0.22-0.09-0.45-0.18-0.67-0.28c-4.88-2.13-9.51-4.67-13.53-7.3c0.53-0.61 1.3-1.46 2.24-2.4c1.88-1.89 4.45-4.15 6.98-5.56z" /><path class="s5" d="m311.15 300.21c0.12-2.25 0.15-4.8 0.15-7.35c0-2.01-0.03-4.02-0.06-5.85c-0.06-3.3-0.15-6.12-0.21-7.56c4.86-0.78 9.57-1.68 14.16-2.64c0 0 0 0.01 0 0.03c0.12 1.14 0.27 2.79 0.42 4.71c0.12 1.65 0.24 3.48 0.33 5.4c0.15 2.55 0.24 5.22 0.24 7.68c0 1.95-0.06 3.75-0.18 5.28c-0.06 0.72-0.15 1.38-0.27 1.95c-4.95 0.6-9.9 1.17-14.82 1.65c0.09-0.99 0.18-2.07 0.24-3.3z" /><path class="s10" d="m87.57 255.66c2.86 1.24 5.87 2.48 9.05 3.71c-0.59 0.67-1.35 1.55-2.31 2.65c-1.91 2.18-4.48 5.1-7.35 8.34c-7.14-3.85-13.71-9.32-17.56-12.81c7.91-0.87 15.47-1.69 17.84-1.8c0.12-0.01 0.22-0.06 0.34-0.09z" /><path class="s5" d="m330.68 294.63c0-2.55-0.09-5.28-0.21-7.86c-0.27-4.68-0.66-8.91-0.84-10.95c6.06-1.38 11.94-2.88 17.58-4.53c0.12 0.96 0.27 2.37 0.45 4.05c0.24 2.7 0.48 6.12 0.57 9.81c0.03 1.02 0.06 2.04 0.06 3.09c0 3.48-0.21 7.05-0.63 10.41c-5.79 0.99-11.55 1.83-17.31 2.61c0.03-0.3 0.09-0.6 0.12-0.96c0.15-1.71 0.21-3.63 0.21-5.67z" /><path class="s5" d="m352.73 284.49c-0.21-6.75-0.9-12.42-1.14-14.49c6.09-1.86 11.88-3.87 17.46-5.97c0.06 0.15 0.15 0.27 0.24 0.36l-0.03 0.03l0.06 0.15c0.12 0.3 0.27 0.81 0.42 1.5c0.3 1.32 0.63 3.21 0.93 5.43c0.36 2.67 0.66 5.79 0.84 8.91c0.12 2.01 0.18 4.02 0.18 5.94c0.03 3-0.18 5.73-0.57 7.71c-6.3 1.35-12.57 2.61-18.87 3.75c0.33-3.18 0.54-6.42 0.54-9.57c0-1.26-0.03-2.52-0.06-3.75z" /><path class="s5" d="m290.72 302.16c0.27-2.64 0.45-5.79 0.6-8.82c0.12-2.7 0.21-5.31 0.27-7.35c0.03-1.86 0.09-3.24 0.09-3.9c5.07-0.54 10.02-1.2 14.88-1.92c0.03 0.75 0.06 1.71 0.09 2.91c0.03 1.11 0.06 2.4 0.09 3.78c0.03 1.89 0.06 3.96 0.06 6c0 2.52-0.03 5.01-0.15 7.14c-0.06 1.59-0.18 2.97-0.33 3.96c-5.34 0.45-10.65 0.87-15.93 1.17c0.12-0.9 0.24-1.86 0.33-2.97z" /><path class="s9" d="m54.68 213.9c1.14-2.52 2.67-4.68 4.05-6.12c0.9-0.93 1.77-1.56 2.19-1.71c1.41-0.66 3.57-1.26 5.64-1.71c1.71-0.36 3.33-0.63 4.56-0.84c-0.45 2.43-0.81 4.71-1.02 6.75c-0.9-0.75-1.86-1.56-2.67-2.49c-0.45-0.51-1.05-0.78-1.68-0.78c-0.51 0-1.05 0.18-1.47 0.57c-0.96 0.81-1.05 2.22-0.21 3.15c2.79 3.18 6.27 5.4 6.66 5.64c0.99 0.69 63.33 44.25 167.19 44.28c10.35 0 21.12-0.45 32.28-1.41c64.35-5.49 107.1-24.12 133.77-41.43c26.7-17.34 37.26-33.36 37.41-33.57c0.06-0.09 0.09-0.18 0.12-0.27c0.21-0.42 0.3-0.9 0.21-1.35c0-0.09-1.05-5.73-3.69-14.76c0.81 0.12 1.68 0.24 2.61 0.36c2.67 0.39 5.82 0.9 8.25 1.8c1.62 0.57 2.85 1.32 3.45 1.98c3.6 4.08 6.93 11.04 6.93 20.52c0 0.06-0.09 0.63-0.42 1.44c-0.39 0.54-0.72 1.14-1.11 1.68l-0.06 0.06c-0.27 0.36-0.39 0.81-0.39 1.26c-0.18 0.27-0.3 0.48-0.48 0.78c-1.77 2.79-4.53 6.39-8.25 10.47c-7.44 8.13-18.81 18.24-34.26 28.23c-19.62 12.66-45.78 25.17-78.99 33.42c-19.23 4.83-40.86 8.19-64.92 9.39c-8.85 0.45-17.49 0.66-25.86 0.66c-50.64 0-92.19-7.53-123.42-16.89c-31.23-9.36-52.2-20.64-61.38-27.9c-2.61-2.04-4.26-3.81-4.77-4.74c-1.56-2.7-2.19-5.43-2.19-8.1c0-2.94 0.78-5.82 1.92-8.37z" /><path class="s7" d="m398.09 251.04c8.16-4.26 15.48-8.7 22.05-13.11c0.03 0.06 0.09 0.15 0.12 0.21v0.03c3.21 5.25 12.09 19.95 19.74 31.98c0.03 0.03 0.03 0.06 0.06 0.09c3.69 5.88 7.05 11.07 9.36 14.31c1.89 2.67 4.71 5.73 8.04 9.03c3.33 3.33 7.17 6.87 10.98 10.35c5.31 4.86 10.62 9.63 14.61 13.5c-0.3 0.06-0.6 0.12-0.93 0.21c-1.77 0.54-3.87 1.59-5.31 3.75c-0.93 1.44-1.5 3.27-1.5 5.43c0 1.11 0.15 2.28 0.45 3.57c-2.43-0.51-4.89-0.87-7.2-0.9c-1.98 0.03-3.87 0.27-5.58 1.14c-1.62 0.81-2.82 2.13-3.51 3.63c-0.09 0.21-0.18 0.42-0.24 0.63c-0.51 1.32-0.69 2.76-0.69 4.17c0 2.28 0.48 4.62 1.17 6.93c-0.06-0.06-0.09-0.12-0.15-0.18c-2.82-3-6.09-5.85-9.51-7.77c-2.31-1.26-4.68-2.13-7.14-2.16c-1.14 0-2.31 0.21-3.39 0.66c-2.52 1.05-4.29 3-5.52 5.13c-1.26 2.16-2.04 4.53-2.55 6.75c-0.48 2.04-0.72 3.96-0.84 5.46c-2.97-1.44-5.46-3.33-7.41-5.58c-0.42-0.51-1.05-1.5-1.77-2.85c-0.69-1.32-1.5-3.03-2.34-5.01c-1.71-3.96-3.63-9-5.64-14.67c-4.05-11.34-8.46-25.11-12.27-37.56c-4.35-14.1-7.95-26.49-9.48-31.83c-0.21-0.78-0.39-1.38-0.51-1.86c2.34-1.14 4.65-2.28 6.9-3.48z" /><path class="s5" d="m387.05 256.47c0.78 2.76 2.55 8.85 4.89 16.68c1.26 4.32 2.7 9.15 4.26 14.25c-5.88 1.95-11.94 3.69-18.21 5.16c-0.72 0.18-1.44 0.3-2.13 0.45c0.24-2.01 0.33-4.26 0.33-6.66c0-2.34-0.09-4.83-0.27-7.23c-0.12-1.95-0.27-3.87-0.48-5.67c-0.45-4.05-1.02-7.5-1.62-9.6c-0.15-0.54-0.3-0.99-0.54-1.44c4.8-1.89 9.39-3.9 13.77-5.94z" /><path class="s5" d="m268.43 301.8c0.42-2.82 0.75-5.88 1.02-8.7c0.33-4.05 0.54-7.62 0.63-9.33h0.18c0.12 0 0.24 0 0.36-0.03c5.64-0.27 11.16-0.69 16.56-1.2c-0.03 0.45-0.03 1.05-0.06 1.8c0 0.39-0.03 0.84-0.03 1.29c-0.03 1.5-0.12 3.33-0.18 5.28c-0.21 5.07-0.54 11.01-1.05 14.1c-0.03 0.12-0.06 0.24-0.06 0.36c-6.09 0.33-12.12 0.51-18.12 0.6c0.3-1.29 0.54-2.7 0.75-4.17z" /><path fill-rule="evenodd" class="s11" d="m630.11 27.88c0.47-0.13 0.95-0.19 1.41-0.19c2.21 0.02 4.04 1.21 5.49 2.8c1.45 1.61 2.57 3.73 3.23 6.19c0.39 1.45 0.58 2.88 0.58 4.25c0 1.88-0.34 3.63-1.11 5.14c-0.75 1.49-2.04 2.82-3.82 3.3l0 0c-0.46 0.12-0.94 0.18-1.41 0.18c-2.21-0.02-4.04-1.21-5.49-2.8c-1.45-1.61-2.57-3.73-3.23-6.18l2.17-0.58l-2.17 0.58c-0.39-1.45-0.58-2.88-0.58-4.25c0-1.88 0.34-3.63 1.11-5.14c0.75-1.49 2.04-2.82 3.82-3.3zm-0.01 11.52c0.49 1.82 1.34 3.36 2.23 4.34c0.9 1.01 1.76 1.34 2.14 1.31l0.25-0.03c0.27-0.07 0.61-0.29 0.98-1c0.36-0.69 0.62-1.8 0.62-3.1c0-0.95-0.13-2-0.42-3.08c-0.49-1.82-1.34-3.36-2.23-4.34c-0.9-1.01-1.76-1.34-2.14-1.31l-0.25 0.03c-0.27 0.07-0.61 0.29-0.98 1c-0.36 0.69-0.62 1.8-0.62 3.1c0 0.95 0.13 2 0.42 3.08z" /><path fill-rule="evenodd" class="s11" d="m542.11 28.09c0.51-3.6 2.55-6.71 5.41-8.88c2.86-2.18 6.57-3.46 10.59-3.46c4.2 0 8.06 1.39 10.96 3.74c2.9 2.34 4.88 5.7 5.14 9.52l0 0.06l0.03 0.72l0 0.09c0 4-1.91 7.59-4.85 10.1c-2.94 2.52-6.93 4.03-11.29 4.03c-4.35 0-8.33-1.51-11.26-4.03c-2.93-2.51-4.85-6.1-4.85-10.1c0-0.6 0.03-1.18 0.11-1.76l0-0.03zm27.33-0.35c-0.49-1.8-1.58-3.44-3.19-4.75c-2.06-1.67-4.93-2.74-8.14-2.74c-3.06 0-5.82 0.98-7.86 2.54c-1.56 1.19-2.68 2.69-3.28 4.35c2.99 1.28 6.55 1.62 11.28 1.61c4.13 0.02 8.25-0.09 11.19-1.01zm-19.66 8.83c2.08 1.79 5.03 2.95 8.33 2.95c3.32 0 6.28-1.16 8.36-2.95c1.36-1.17 2.29-2.59 2.81-4.13c-2.34 0.54-4.82 0.72-7.28 0.78c0 0.01 0.01 0.02 0.01 0.04c0 2.21-1.79 4-4 4c-2.21 0-4-1.79-4-4c0-0.04 0.02-0.07 0.02-0.1c-2.55-0.14-4.95-0.47-7.23-1.21c0.46 1.74 1.48 3.33 2.99 4.63z" /><path fill-rule="evenodd" class="s11" d="m1.04 244.98c0.64-0.64 1.31-0.99 2.06-1.31c1.4-0.58 3.14-1 5.26-1.39c7.37-1.32 19.28-2.03 30.19-2.64c5.44-0.3 10.62-0.57 14.78-0.87c1.25-0.09 2.38-0.18 3.42-0.27c-2.73-2.19-4.61-4.05-5.69-5.86c-1.99-3.41-2.8-6.98-2.8-10.36c0.01-4.97 1.69-9.52 3.81-13.06c1.06-1.78 2.24-3.31 3.42-4.53c1.19-1.23 2.34-2.16 3.61-2.73c2.59-1.14 5.92-1.88 8.69-2.41c1.89-0.35 3.48-0.58 4.32-0.69c1.83-8.15 4.73-17.8 8.89-28.43c10.96-27.94 30.43-62.12 60.82-89.74c27.15-24.68 63.12-44.03 109.27-48.81c0.3-0.1 0.62-0.14 0.96-0.1c0.01 0 0.01 0.01 0.02 0.01c5.18-0.51 10.45-0.89 15.89-1.02c1.64-0.04 3.26-0.06 4.86-0.06c35.23-0.01 63.53 9.51 86.03 23.8c33.75 21.44 54.43 53.47 66.7 80.09c4.93 10.71 8.49 20.51 11.01 28.46l0.01-0.02c0.04 0.02 0.42 0.12 0.93 0.2c1.83 0.32 5.31 0.65 8.77 1.4c1.74 0.37 3.5 0.85 5.12 1.53c1.62 0.68 3.13 1.55 4.31 2.86c3.5 3.94 6.52 9.88 7.61 17.46c2.45-4.79 4.5-9.87 6.28-15.01c1.83-5.34 3.36-10.79 4.75-16.3c0.01-0.31 0.09-0.61 0.22-0.88c0.77-3.12 1.51-6.24 2.2-9.39c1.96-8.99 3.59-18.07 5.11-27.19l2.29-13.72c0.38-2.28 0.86-4.64 1.36-6.94c0.45-2.1 0.76-4.29 0.93-6.55c0.68-9.02 0.58-18.42 1.54-27.75c0.89-9.34 2.63-18.69 5.71-27.64c1.46-4.5 3.29-8.83 5.72-13.16c2.65-4.1 5.81-7.98 9.77-10.88c1.85-1.61 4.02-2.75 6.08-4.04c2.18-1.03 4.32-2.22 6.62-2.96c4.5-1.75 9.21-2.81 13.92-3.47c4.74-0.64 9.47-0.91 14.31-0.64l13.89 1.39c9.2 0.88 18.41 1.68 27.6 2.26c4.59 0.27 9.2 0.51 13.74 0.52c4.51-0.04 9.42-0.13 14.16 0.54c4.78 0.63 9.55 1.94 13.95 4.1c4.41 2.14 8.38 5.12 11.78 8.57c6.89 6.92 11.32 15.59 14.81 24.34c3.49 8.82 5.5 18.23 6.01 27.74c0.18 4.76-0.03 9.55-0.78 14.3c-0.35 2.37-0.88 4.73-1.6 7.07c-0.71 2.34-1.56 4.64-2.96 6.91c-0.63 1.13-1.74 2.34-2.83 3.18c-1.09 0.8-2.19 1.44-3.29 2.02c-2.2 1.12-4.42 2.01-6.64 2.83c-4.25 1.55-8.51 2.79-12.88 3.9c-6.51 7.03-13.54 13.45-22.03 18.29c-4.32 2.36-9.29 4.51-14.74 4.14c-5.2-0.29-9.95-1.75-14.56-3.4c-2.75-1.01-5.41-2.16-8.05-3.37c-0.19 0.06-0.38 0.14-0.59 0.15c-3.56 0.18-7.11 0.27-10.67 0.3c-1.67 4.23-10.6 26.02-28.24 53.04c-19.32 29.6-49.09 65.4-91.15 90.96c3.2 5.05 6.08 9.46 8.03 12.23c1.84 2.59 5.11 6.08 8.98 9.85c5.81 5.66 12.97 12 18.96 17.53c3 2.77 5.7 5.33 7.82 7.53c1.06 1.1 1.98 2.12 2.72 3.05c0.75 0.94 1.33 1.76 1.73 2.67c0.57 1.31 0.82 2.78 0.82 4.36c-0.02 4.46-1.95 9.96-6.07 15.36c-4.13 5.39-10.49 10.63-19.45 14.28c-8.26 3.36-16.13 4.94-23.23 4.94c-10.81 0.01-19.92-3.67-25.59-10.33c-0.79-0.94-1.52-2.14-2.31-3.64c-2.75-5.22-6.17-14.19-9.8-24.68c-3.39-9.8-6.92-20.85-10.12-31.18c-5.99 1.97-12.15 3.76-18.53 5.25c-16.92 3.95-33.83 6.92-50.57 9.1c-0.37 0.17-0.78 0.2-1.19 0.15c-20.97 2.68-41.64 4.06-61.67 4.3c-0.5 0.21-1.07 0.27-1.63 0.07c-0.03-0.01-0.05-0.04-0.08-0.05c-1.55 0.01-3.12 0.06-4.66 0.06c-45.24 0-86.92-5.76-120.96-15.16c-3.68 9.43-8.39 20.3-13.77 29.82c-2.87 5.08-5.93 9.77-9.16 13.67c-3.23 3.89-6.62 7.01-10.3 8.86c-4.1 2.05-8.74 2.89-13.56 2.89c-11.23-0.02-23.61-4.51-33.85-10.13c-5.12-2.82-9.69-5.93-13.31-8.98c-3.61-3.07-6.28-5.99-7.59-8.88c-0.64-1.43-0.97-2.86-0.96-4.25c-0.01-2.98 1.52-5.48 3.51-7.39c3.01-2.9 7.24-5 11.37-7.05c4.12-2.02 8.14-3.97 10.45-5.94c2.11-1.78 6.12-5.9 10.64-10.76c3.92-4.22 8.24-9.01 12.23-13.5c-5.42-3.04-10.37-6.74-14.13-9.9c-2.17-1.83-3.95-3.45-5.19-4.63c-0.44-0.42-0.79-0.76-1.09-1.06c-6.86 0.74-13.16 1.4-16.03 1.55c-2.8 0.14-5.49 0.21-8.07 0.21c-11.91 0-21.38-1.42-28.02-3.47c-3.33-1.03-5.95-2.21-7.89-3.56c-0.97-0.68-1.78-1.41-2.4-2.27c-0.62-0.85-1.06-1.89-1.06-3.03c0-0.43 0.06-0.86 0.19-1.27c0.18-0.59 0.5-1.03 0.82-1.37zm106.42-116.43c-9.64 14.99-16.99 30-22.29 43.51c-6.86 17.48-10.25 32.42-10.83 41.31c4.36 2.88 22.78 14.4 52.99 24.78c0.68-1.3 1.75-3.34 3.1-5.95c3.56-6.87 9-17.45 13.89-27.37c2.44-4.96 4.75-9.76 6.61-13.84c1.86-4.07 3.29-7.46 3.93-9.43c1.38-4.24 2.17-8.26 2.17-11.93c-0.04-5.95-1.93-10.89-6.97-15.14c-2.08-1.73-5.92-4.34-10.43-7.17c-6.77-4.26-15.08-9.1-21.7-12.87c-3.31-1.89-6.19-3.5-8.24-4.65c-0.94-0.52-1.68-0.94-2.23-1.24zm276.44-47.82c-3.3 3.13-13.28 12.43-24.94 22.01c-7.15 5.88-14.93 11.86-22.22 16.59c-7.32 4.73-14.05 8.26-19.65 9.14c-1.44 0.22-2.98 0.32-4.59 0.32c-5.71 0-12.47-1.21-19.54-3.07c-10.6-2.79-21.85-7.06-30.79-11.14c-4.47-2.04-8.35-4.03-11.31-5.8c-1.48-0.88-2.73-1.71-3.73-2.48c-1-0.8-1.77-1.45-2.35-2.47c-0.28-0.53-0.41-1-0.53-1.51c-0.32-1.51-0.41-3.48-0.42-6.01c0-8.93 1.43-24.5 2.85-37.93c0.99-9.36 1.98-17.64 2.49-21.81c-9.02 1.04-17.62 2.66-25.83 4.77c0.29 1.35 0.54 3.01 0.8 5.06c1.14 9.15 2.07 24.9 2.07 38.38c0 5.44-0.15 10.51-0.51 14.64c-0.18 2.07-0.41 3.9-0.72 5.47c-0.31 1.57-0.66 2.85-1.26 3.96c-0.73 1.3-1.84 2.42-3.28 3.67c-2.53 2.14-6.14 4.51-10.44 6.92c-6.44 3.61-14.4 7.29-22.28 10.1c-7.89 2.8-15.66 4.74-21.95 4.75c-2.27 0-4.36-0.25-6.24-0.89c-7.61-2.58-18-7.61-26.7-12.03c-4.35-2.21-8.25-4.27-11.14-5.79c-1.44-0.76-2.62-1.39-3.47-1.82c-0.13-0.07-0.19-0.1-0.3-0.15c-2.81 3.71-5.44 7.45-7.96 11.21c2.84 1.57 9.72 5.42 17.3 9.83c4.95 2.88 10.19 6 14.77 8.88c4.59 2.89 8.49 5.5 10.91 7.52c6.08 5.02 8.63 11.64 8.59 18.6c0 4.31-0.91 8.78-2.39 13.33c-1.02 3.1-3.28 8.19-6.14 14.26c-7.11 15.04-17.87 35.72-21.35 42.39c6.86 2.24 14.29 4.4 22.25 6.39c1.05-2.98 5.12-14.31 10.95-27.43c3.4-7.64 7.39-15.88 11.73-23.43c4.35-7.55 9.03-14.41 13.95-19.34c3.75-3.74 9.03-6.82 15.26-9.43c18.67-7.79 46.1-11.42 66.54-11.44c5 0 9.58 0.22 13.52 0.66c3.95 0.45 7.25 1.1 9.81 2.07c2.69 1.04 5.17 3.16 7.76 6c4.5 4.98 9.24 12.31 13.91 20.58c12.18 21.57 23.79 49.48 26.6 56.35c6.03-1.91 11.72-3.93 17.08-6.03c-4.68-9.5-9.35-21.07-12.91-32.96c-3.74-12.5-6.28-25.3-6.29-36.42c0.01-9.78 1.94-18.39 7.27-24.2c8.08-8.71 21.97-17.96 33.93-25.18c9.01-5.43 16.89-9.65 20.24-11.41c-5.58-8.1-12-16.11-19.37-23.66zm-29.53-23.73c-21.48-13.13-48.2-21.81-81.55-21.81c-1.57 0-3.16 0.02-4.75 0.06c-4.88 0.12-9.64 0.42-14.3 0.85c-0.16 1.26-0.38 3.12-0.66 5.45c-0.8 6.71-1.99 17.18-2.99 27.59c-1 10.4-1.79 20.79-1.79 27.17c0 1.59 0.05 2.93 0.15 3.9c0.05 0.49 0.11 0.88 0.17 1.15l0.08 0.29l0.01 0.03c0.02 0.04 0.24 0.31 0.63 0.64c1.51 1.33 5.17 3.55 9.91 5.9c7.14 3.56 16.86 7.61 26.61 10.74c9.73 3.14 19.54 5.35 26.62 5.34c1.43 0 2.75-0.09 3.92-0.27c4.28-0.62 10.83-3.87 17.87-8.47c10.61-6.89 22.57-16.7 31.82-24.78c4.63-4.04 8.59-7.64 11.4-10.24c1.36-1.26 2.43-2.26 3.19-2.98c-7.76-7.52-16.47-14.53-26.33-20.56zm-133.67 0.74c-0.3-4.13-0.65-7.85-1.02-10.79c-0.22-1.83-0.47-3.34-0.69-4.46c-43.43 12.28-75.45 38.57-98.27 67.47c0.07 0.04 0.12 0.06 0.2 0.1c3.4 1.78 10.34 5.5 18 9.31c7.64 3.81 16.02 7.7 22.07 9.75c1.23 0.42 2.87 0.65 4.79 0.65c4.08 0.01 9.41-1.02 15.07-2.72c8.49-2.54 17.74-6.56 25.15-10.55c3.7-1.99 6.95-3.99 9.39-5.75c1.22-0.88 2.23-1.71 2.99-2.42c0.76-0.71 1.25-1.33 1.41-1.65c0.2-0.35 0.54-1.33 0.79-2.66c0.79-4.03 1.15-11.22 1.15-19.25c0-8.84-0.41-18.77-1.02-27.03zm-62.4 189.3c22.63 5.31 49.33 9.08 79.64 9.08c10.22 0 20.86-0.43 31.88-1.37c27.05-2.31 50.15-6.97 69.82-12.85c-0.16-0.4-0.35-0.85-0.56-1.37c-3.04-7.37-10.91-25.92-19.81-43.26c-4.45-8.67-9.17-17.03-13.63-23.5c-2.23-3.23-4.39-5.99-6.39-8.05c-1.98-2.07-3.82-3.4-5.15-3.89c-1.97-0.75-5.01-1.39-8.73-1.8c-3.73-0.42-8.15-0.64-13.02-0.64c-13.26 0-29.77 1.61-44.55 4.91c-7.39 1.65-14.35 3.71-20.25 6.18c-5.9 2.46-10.71 5.35-13.82 8.46c-4.46 4.45-9.01 11.04-13.23 18.4c-6.35 11.04-12.02 23.78-16.08 33.74c-2.03 4.98-3.66 9.27-4.79 12.31c-0.56 1.52-1 2.73-1.29 3.55c-0.01 0.03-0.02 0.04-0.03 0.08zm247.52-138.91c-0.16 0.08-0.31 0.16-0.5 0.26c-3.88 2.04-13.83 7.37-24.46 14.01c-10.62 6.62-21.96 14.59-28.45 21.62c-4.15 4.44-6.09 11.92-6.08 21.14c0 10.43 2.43 22.91 6.1 35.13c3.53 11.76 8.18 23.28 12.8 32.6c14.53-5.99 26.54-12.54 36.3-18.88c13.04-8.47 22.09-16.58 27.87-22.55c2.89-2.99 4.96-5.44 6.3-7.13c0.63-0.8 1.09-1.41 1.4-1.84c-1.22-5.98-9.02-40.39-31.3-74.36zm61.4 140.71c28.67-22.62 50.16-49.46 65.22-72.53c9.69-14.84 16.72-28.11 21.33-37.65c2.3-4.77 4-8.61 5.12-11.25c0.28-0.65 0.51-1.22 0.72-1.73c-1.18-0.02-2.36 0-3.54-0.04c-1.6-0.06-3.18-0.11-4.8-0.23c-1.55-0.06-3.5-0.35-5.06-1.07c-3.13-1.44-5.61-3.66-7.57-6.22c2.77 1.61 5.61 3.03 8.43 3.77c1.42 0.39 2.67 0.38 4.27 0.33c1.54-0.04 3.11-0.13 4.68-0.23c3.85-0.27 7.7-0.5 11.56-0.7c-3.35-1.74-6.66-3.54-9.97-5.34c-2.1-1.2-4.19-2.41-6.2-3.78c-0.53-0.39-0.93-0.62-1.56-1.16c-0.65-0.52-1.19-1.09-1.59-1.72c-0.88-1.22-1.37-2.5-1.8-3.75c-1.42-5.05-1.21-10-0.33-14.79c0.89 4.74 1.89 9.5 3.71 13.49c0.48 0.95 1 1.88 1.63 2.52c0.3 0.36 0.62 0.6 0.93 0.81c0.28 0.24 0.95 0.57 1.39 0.86l6.03 3.73c8.02 5.03 16.57 9.3 25.34 12.56c4.38 1.56 8.91 2.87 13.29 3.08c4.22 0.32 8.48-1.47 12.46-3.67c6.38-3.65 12.2-8.61 17.47-13.97c-0.87 0.03-1.74 0.08-2.62 0.07c-2.75-0.18-5.54-0.05-8.27-0.58l-4.11-0.6c-1.36-0.26-2.71-0.62-4.06-0.92c-2.73-0.53-5.34-1.56-7.95-2.48c-5.19-2.03-10.07-4.8-14.5-8.13c-4.4-3.31-8.41-7.48-10.36-12.77c4.38 3.38 8.45 6.49 12.77 9.37c4.32 2.84 8.99 5.13 13.84 6.88c4.9 1.57 9.88 3.04 15.05 3.57c1.27 0.23 2.56 0.33 3.86 0.4l3.88 0.31c2.54 0.1 5.09 0.01 7.66 0.09c4.31-1.09 8.67-2.35 12.83-3.87c2.11-0.78 4.2-1.62 6.13-2.6c0.95-0.5 1.85-1.03 2.63-1.61c0.72-0.59 1.23-1.1 1.74-1.99c2.09-3.44 3.19-7.97 3.92-12.29c0.69-4.4 0.9-8.9 0.73-13.39c-0.48-8.98-2.38-17.91-5.71-26.31c-3.33-8.37-7.57-16.55-13.82-22.8c-6.12-6.37-14.32-10.31-23.13-11.37c-4.44-0.62-8.82-0.55-13.56-0.5c-4.72-0.02-9.37-0.26-14.02-0.53c-1.06-0.07-2.12-0.16-3.19-0.23c0 0 0 0.01-0.01 0.01c-0.04 0.04-1.26 1.11-3.03 2.35c-1.78 1.24-4.04 2.66-6.47 3.37c-0.47 0.13-0.93 0.19-1.38 0.19c-1.72-0.02-3.17-0.7-4.56-1.5c-2.07-1.23-4.01-2.92-5.49-4.32c-0.88-0.84-1.55-1.53-1.98-1.99c-0.55-0.05-1.11-0.1-1.66-0.15l-13.75-1.38c-2.82-0.16-5.69-0.09-8.56 0.12c0.01 0.06 0.03 0.1 0.04 0.16c0.34 1.5 0.7 3.4 0.7 5.27c0 0.8-0.06 1.61-0.28 2.42c-0.22 0.8-0.59 1.66-1.36 2.38c-1.27 1.14-2.97 2-4.94 2.71c-1.96 0.69-4.13 1.18-6.23 1.18c-1.24 0-2.47-0.17-3.64-0.68c-1.34-0.61-2.32-1.57-3.16-2.58c-1.25-1.54-2.17-3.29-2.83-4.68c-0.11-0.23-0.2-0.44-0.29-0.65c-0.62 0.31-1.24 0.61-1.86 0.9c-1.85 1.17-3.82 2.19-5.47 3.64c-1.69 1.23-3.19 2.66-4.57 4.21c0.81-0.23 1.64-0.4 2.52-0.41c0.55 0 1.12 0.06 1.71 0.26c1.11 0.41 1.63 1.04 2.21 1.7c0.95 1.18 1.82 2.72 2.71 4.51c1.32 2.67 2.61 5.84 3.6 8.58c0.5 1.37 0.92 2.63 1.23 3.68c0.31 1.08 0.52 1.82 0.6 2.62l0.01 0.21c-0.02 0.92-0.39 1.48-0.68 1.88c-0.59 0.74-1.24 1.2-2.02 1.72c-1.37 0.88-3.16 1.77-5.17 2.68c-3.01 1.35-6.47 2.69-9.35 3.71c-1.44 0.51-2.74 0.93-3.78 1.24c-0.52 0.15-0.98 0.28-1.38 0.37c-0.42 0.09-0.7 0.17-1.24 0.18c-0.71 0-1.28-0.21-1.75-0.44c-0.82-0.42-1.41-0.95-1.97-1.52c-0.06-0.06-0.11-0.12-0.17-0.19c-0.9 4.47-1.55 9.01-1.99 13.58c-0.02 0.18-0.03 0.37-0.04 0.55c1.58 0.71 4.47 2.04 7.57 3.64c2.29 1.19 4.68 2.51 6.72 3.85c1.02 0.67 1.95 1.35 2.76 2.04c0.81 0.7 1.5 1.38 2.04 2.24c0.86 1.42 1.07 2.97 1.08 4.54c-0.01 2.98-0.86 6.23-1.8 9.04c-0.47 1.4-0.97 2.68-1.42 3.72c-0.46 1.05-0.83 1.82-1.2 2.4c-0.51 0.79-1.19 1.26-1.86 1.59c-1.01 0.5-2.1 0.74-3.28 0.91c-1.18 0.16-2.46 0.23-3.77 0.23c-2.12 0-4.34-0.17-6.31-0.44c-1.04-0.14-1.99-0.31-2.85-0.5c-0.07 0.36-0.11 0.71-0.19 1.08c-0.37 1.69-0.7 3.36-1.01 5.07c0.26 0.01 0.53 0.06 0.78 0.17v0c0.05 0.02 1.94 0.84 3.97 2.05c1.02 0.61 2.08 1.31 3.01 2.12c0.91 0.83 1.81 1.7 2.19 3.24c0.12 0.55 0.17 1.1 0.17 1.65c-0.01 1.65-0.45 3.3-1.23 4.76c-0.8 1.45-1.96 2.79-3.7 3.48c-0.89 0.34-1.85 0.53-2.9 0.69c-1.93 0.3-4.09 0.45-5.46 0.52c-0.17 0.98-0.34 1.96-0.52 2.94c0.77 0.61 2.08 1.69 3.48 3c1.09 1.02 2.24 2.17 3.23 3.38c0.99 1.22 1.87 2.46 2.36 3.9c0.52 1.59 0.68 3.52 0.69 5.69c0 2.58-0.28 5.42-0.87 7.95c-0.29 1.27-0.66 2.45-1.15 3.51c-0.5 1.06-1.09 2.03-2.09 2.8c-1.06 0.78-2.24 1.18-3.51 1.52c-3.07 0.77-6.77 0.94-8.96 0.98c-1.33 5.18-2.8 10.33-4.54 15.42c-2.83 8.13-6.14 16.23-11.2 23.54c-1.02 2.22-2.71 4.92-5.15 8.12c-6.25 8.17-17.35 19.37-33.62 30.81c0.28 0.47 0.6 1 1 1.66c0.39 0.65 0.85 1.4 1.34 2.22c3.28-0.54 12.45-1.95 19.89-1.96c3.01 0.01 5.72 0.2 7.93 0.94c4.16 1.45 7.65 4.53 10.23 7.21c1.22 1.28 2.22 2.47 2.94 3.39zm13.93-102.99c-0.52 2.37-1.06 4.74-1.62 7.1c1.02-0.04 2.2-0.12 3.39-0.25c1.18-0.13 2.36-0.32 3.32-0.56c0.96-0.23 1.7-0.57 1.92-0.76c0.06-0.03 0.4-0.41 0.7-1.08c0.47-1.01 0.9-2.58 1.18-4.3c0.28-1.72 0.43-3.6 0.43-5.28c0.01-1.86-0.21-3.54-0.46-4.27c-0.16-0.53-0.75-1.49-1.56-2.47c-1.18-1.44-2.8-2.96-4.14-4.13c-0.97 5.34-1.99 10.67-3.15 15.99zm6.97-38.3l-1.62 9.71c0.79-0.05 1.7-0.12 2.59-0.23c1.42-0.15 2.86-0.42 3.36-0.63c0.36-0.12 0.93-0.62 1.36-1.42c0.43-0.79 0.7-1.81 0.69-2.62l-0.07-0.67l-0.03-0.05c-0.12-0.21-0.61-0.73-1.28-1.22c-1-0.76-2.35-1.53-3.42-2.09c-0.54-0.28-1.01-0.51-1.34-0.66l-0.26-0.12zm2.8-16.66c-0.04 0.54-0.12 1.1-0.18 1.65c0.77 0.18 1.73 0.36 2.8 0.51c1.78 0.24 3.83 0.4 5.71 0.4c1.54 0 2.98-0.11 3.97-0.33c0.5-0.11 0.88-0.24 1.07-0.34l0.12-0.07c0.14-0.24 0.46-0.87 0.81-1.68c0.6-1.38 1.33-3.32 1.89-5.33c0.57-2 0.96-4.09 0.95-5.65c0.01-1.1-0.21-1.88-0.41-2.18c-0.12-0.2-0.52-0.67-1.13-1.18c-2.14-1.84-6.53-4.29-10.27-6.15c-1.59-0.79-3.06-1.49-4.24-2.03c-0.48 7.36-0.55 14.77-1.11 22.38zm13.75-66.09c-0.48 0.26-0.88 0.49-1.16 0.66l-0.32 0.19l-0.1 0.06c-0.24 0.15-0.49 0.24-0.75 0.29c-1.71 3.3-3.22 6.88-4.4 10.55c-0.84 2.44-1.55 4.91-2.19 7.41c0.29 0.46 0.91 1.39 1.59 2.18c0.37 0.43 0.75 0.81 1.01 1.01l0.11 0.07c0.26-0.06 0.67-0.16 1.17-0.31c2.57-0.75 7.41-2.49 11.48-4.26c2.04-0.88 3.91-1.78 5.16-2.52c0.45-0.26 0.78-0.49 1.03-0.68c-0.18-0.72-0.53-1.88-0.98-3.17c-0.92-2.69-2.29-6.14-3.63-8.93c-0.67-1.39-1.34-2.62-1.9-3.45c-0.28-0.42-0.53-0.73-0.69-0.9l-0.05-0.04l-0.17-0.02c-0.38-0.01-1.08 0.12-1.83 0.38c-1.14 0.37-2.42 0.99-3.38 1.5zm32.22-19.07c-0.06-0.26-0.12-0.48-0.17-0.71c-0.11 0.01-0.21 0.02-0.32 0.04c-4.44 0.62-8.83 1.61-12.96 3.22c-0.02 0.01-0.04 0.02-0.05 0.02c0.28 0.63 0.63 1.37 1.05 2.12c0.46 0.82 0.99 1.64 1.53 2.27c0.53 0.64 1.07 1.05 1.4 1.19c0.36 0.16 1.01 0.3 1.82 0.29c1.38 0.01 3.16-0.36 4.72-0.92c1.53-0.53 2.88-1.3 3.37-1.76c0.07-0.09 0.23-0.69 0.21-1.5c0-1.27-0.28-2.95-0.59-4.26zm35.59 0.91c0.89 0.73 1.82 1.41 2.67 1.89c0.95 0.55 1.79 0.79 2.09 0.77l0.14-0.01c1.14-0.32 2.59-1.08 3.9-1.91c-2.93-0.23-5.87-0.47-8.8-0.73zm-171.31 281.57c3.83 12.45 8.24 26.22 12.27 37.55c2.02 5.67 3.94 10.73 5.64 14.68c0.85 1.98 1.65 3.68 2.35 5.02c0.7 1.34 1.34 2.34 1.76 2.82c1.93 2.28 4.44 4.15 7.39 5.6c0.13-1.5 0.38-3.42 0.86-5.48c0.52-2.22 1.29-4.59 2.53-6.73c1.24-2.13 3.01-4.09 5.53-5.13c1.1-0.46 2.25-0.66 3.4-0.66c2.47 0.01 4.84 0.88 7.13 2.15c3.42 1.91 6.69 4.78 9.51 7.77c0.06 0.06 0.11 0.13 0.17 0.19c-0.71-2.31-1.17-4.67-1.18-6.94c0-1.66 0.25-3.29 0.95-4.79c0.68-1.5 1.88-2.83 3.49-3.65c1.71-0.86 3.61-1.11 5.6-1.12c2.3 0.01 4.76 0.37 7.17 0.89c-0.29-1.29-0.43-2.48-0.43-3.59c-0.01-2.15 0.55-3.99 1.5-5.41c1.43-2.15 3.54-3.21 5.31-3.74c0.32-0.09 0.61-0.16 0.91-0.23c-3.97-3.86-9.28-8.64-14.6-13.49c-3.83-3.5-7.65-7.04-10.97-10.35c-3.33-3.31-6.16-6.37-8.05-9.03l0 0c-2.3-3.25-5.67-8.45-9.37-14.32c-0.02-0.03-0.03-0.07-0.05-0.1c-7.76-12.21-16.8-27.15-19.85-32.21c-6.58 4.42-13.91 8.85-22.06 13.13c-2.24 1.17-4.55 2.33-6.91 3.47c0.13 0.46 0.31 1.07 0.53 1.87c1.53 5.32 5.12 17.73 9.46 31.81zm-130.78-8.96c65.6-3.23 112.95-22.85 143.89-42.83c15.47-9.99 26.83-20.08 34.28-28.23c3.72-4.07 6.47-7.66 8.25-10.47c0.18-0.28 0.3-0.52 0.46-0.78c0.02-0.44 0.12-0.88 0.41-1.26l0.05-0.07c0.4-0.53 0.73-1.13 1.11-1.68c0.32-0.78 0.43-1.36 0.41-1.44c0-9.47-3.32-16.44-6.93-20.51c-0.58-0.68-1.83-1.42-3.45-1.99c-2.42-0.87-5.56-1.41-8.23-1.78c-0.96-0.14-1.82-0.25-2.63-0.37c2.65 9.04 3.68 14.68 3.7 14.74c0.1 0.57-0.02 1.16-0.33 1.64c-0.14 0.21-10.72 16.22-37.4 33.55c-26.68 17.33-69.44 35.96-133.79 41.45c-11.15 0.95-21.91 1.39-32.26 1.38c-103.86-0.01-166.21-43.57-167.19-44.26c-0.4-0.26-3.89-2.46-6.68-5.63c-0.82-0.94-0.72-2.36 0.21-3.17c0.94-0.82 2.36-0.72 3.17 0.21h0c0.81 0.93 1.74 1.76 2.64 2.51c0.23-2.04 0.59-4.33 1.04-6.74c-1.24 0.19-2.87 0.47-4.56 0.84c-2.07 0.45-4.23 1.05-5.66 1.69c-0.41 0.17-1.29 0.79-2.19 1.74c-1.38 1.43-2.9 3.58-4.05 6.11c-1.15 2.53-1.92 5.42-1.92 8.37c0 2.68 0.62 5.4 2.19 8.1c0.53 0.94 2.17 2.71 4.78 4.75c9.19 7.25 30.14 18.53 61.36 27.88c31.23 9.37 72.78 16.89 123.44 16.89c8.38 0 17-0.21 25.87-0.64zm219.23 47.7c0-1.1-0.19-1.98-0.44-2.55c-0.14-0.37-0.8-1.34-1.81-2.49c-0.12-0.13-0.27-0.29-0.4-0.43c-0.19 0.04-0.38 0.1-0.59 0.08v0l-0.19 0c-0.59-0.01-2.47 0.11-3.89 0.85c-0.72 0.36-1.31 0.83-1.74 1.48c-0.42 0.65-0.75 1.52-0.75 2.93c0 1.22 0.3 2.86 1.03 4.92c0.42 0.13 0.88 0.25 1.28 0.38c2.39 0.76 4.41 1.5 5.68 2c1.26-2.74 1.83-5.25 1.82-7.15zm-24.91 19.75c0.76 2 1.71 3.93 2.65 5.52c7.99-3.35 13.55-7.99 17.11-12.64c0.39-0.51 0.74-1.01 1.09-1.52c-1.49-0.57-3.71-1.36-6.21-2.1c-0.51 0.04-0.99-0.11-1.41-0.39c-3.21-0.88-6.68-1.58-9.37-1.58c-1.58-0.01-2.84 0.25-3.55 0.62c-0.71 0.38-1.12 0.83-1.46 1.54c-0.33 0.71-0.53 1.7-0.53 2.89c-0.01 2.19 0.66 4.98 1.68 7.64zm-19.35 10.33c4.75 0 9.98-0.79 15.52-2.48c-1.8-2.57-4.43-5.7-7.33-8.34c-1.87-1.71-3.84-3.21-5.71-4.25c-1.87-1.05-3.61-1.59-4.94-1.58c-0.63 0-1.17 0.1-1.67 0.31c-1.33 0.55-2.44 1.66-3.36 3.24c-1.38 2.35-2.18 5.63-2.55 8.28c-0.19 1.32-0.29 2.49-0.34 3.32c0 0.03 0 0.04 0 0.06c3.11 0.92 6.59 1.43 10.39 1.43zm18.3-105.41c-0.74-0.94-1.78-2.19-3.09-3.52c-2.25-2.3-5.21-4.67-7.99-5.6c-1.21-0.43-3.45-0.67-6.01-0.69c0.7 1.27 1.58 2.92 2.53 4.79c1.86 3.66 3.87 8.01 5.11 11.84c3.22-2.22 6.38-4.48 9.45-6.81zm-89.84 12.22c0.6 2.12 1.16 5.56 1.62 9.62c0.45 4.05 0.76 8.65 0.76 12.88c0 2.41-0.11 4.66-0.36 6.68c0.71-0.16 1.43-0.3 2.14-0.46c6.28-1.46 12.33-3.22 18.23-5.17c-4.4-14.36-7.94-26.64-9.16-30.91c-4.39 2.04-8.98 4.02-13.77 5.93c0.22 0.46 0.38 0.9 0.54 1.44zm-21.57 33.96c6.28-1.13 12.58-2.38 18.88-3.76c0.38-1.95 0.57-4.69 0.57-7.71c0-4.88-0.45-10.46-1.04-14.85c-0.29-2.19-0.62-4.1-0.93-5.43c-0.15-0.66-0.3-1.19-0.41-1.48l-0.07-0.17l0.01-0.01c-0.1-0.12-0.18-0.23-0.25-0.37c-5.57 2.11-11.36 4.11-17.45 5.98c0.31 2.43 1.18 9.9 1.19 18.24c0 3.14-0.19 6.38-0.52 9.55zm-21.78 2.51c-0.03 0.34-0.09 0.63-0.13 0.95c5.75-0.78 11.52-1.63 17.31-2.61c0.42-3.36 0.62-6.93 0.62-10.41c0-4.88-0.31-9.51-0.63-12.9c-0.16-1.7-0.31-3.09-0.43-4.05c0 0 0 0 0-0.01c-5.65 1.64-11.51 3.15-17.59 4.53c0.31 3.18 1.07 11.64 1.07 18.81c0 2.03-0.06 3.97-0.22 5.68zm-4.74 1.53c0.1-0.56 0.19-1.21 0.25-1.94c0.14-1.51 0.2-3.33 0.2-5.27c0-4.32-0.29-9.25-0.59-13.08c-0.15-1.92-0.29-3.56-0.41-4.73c0-0.01 0-0.02 0-0.03c-4.6 0.97-9.32 1.86-14.16 2.66c0.08 2.23 0.26 7.81 0.26 13.4c0 2.56-0.04 5.12-0.14 7.35c-0.06 1.22-0.14 2.31-0.25 3.3c4.92-0.48 9.87-1.03 14.83-1.66zm-19.41 2.1c0.14-0.97 0.26-2.37 0.33-3.96c0.1-2.12 0.14-4.62 0.14-7.14c0-3.53-0.07-7.1-0.15-9.78c-0.03-1.18-0.06-2.15-0.09-2.91c-4.85 0.73-9.8 1.39-14.88 1.93c-0.03 1.37-0.13 6.12-0.37 11.24c-0.14 3.03-0.33 6.18-0.58 8.84c-0.1 1.09-0.22 2.07-0.35 2.97c5.28-0.31 10.6-0.71 15.95-1.19zm-20.54 1.44c0.02-0.12 0.05-0.24 0.07-0.38c0.51-3.1 0.86-9.04 1.06-14.1c0.1-2.54 0.17-4.87 0.22-6.57c0.02-0.75 0.03-1.35 0.04-1.81c-5.4 0.51-10.9 0.94-16.56 1.22c-0.18 0.01-0.36 0.01-0.54 0.02c-0.08 1.72-0.28 5.28-0.64 9.33c-0.25 2.83-0.57 5.89-1 8.71c-0.22 1.47-0.47 2.87-0.75 4.16c5.98-0.1 12.01-0.27 18.1-0.58zm164.55-44.33c-0.96-3.51-3.22-8.44-5.24-12.42c-1.03-2.02-1.99-3.81-2.7-5.09c-0.35-0.64-0.64-1.15-0.84-1.5c-0.02-0.03-0.02-0.04-0.04-0.07c-3.04 0.19-6.16 0.53-8.81 0.87c-1.51 0.2-2.86 0.4-3.97 0.57c3.85 6.33 9.07 14.83 13.92 22.51c2.61-1.58 5.17-3.21 7.68-4.87zm-191.14 45.02c1.27 0 2.57-0.04 3.84-0.05c0.34-1.37 0.67-3.05 0.94-4.89c0.61-4.03 1.02-8.71 1.28-12.37c0.13-1.83 0.22-3.41 0.28-4.52c0.01-0.11 0.01-0.2 0.02-0.31c-6.43 0.26-12.74 0.41-18.9 0.43c-0.1 1.14-0.47 5.4-1.19 10.07c-0.42 2.72-0.95 5.58-1.63 8.07c-0.33 1.2-0.69 2.31-1.11 3.31c5.43 0.17 10.92 0.26 16.47 0.26zm-21.49-0.46c0.01-0.01 0.02-0.03 0.03-0.04c0.15-0.14 0.49-0.66 0.8-1.41c0.57-1.32 1.13-3.33 1.59-5.52c0.7-3.3 1.22-7.06 1.56-9.97c0.17-1.46 0.29-2.7 0.38-3.58c0.03-0.29 0.05-0.51 0.06-0.72c-7.14-0.03-14.1-0.21-20.88-0.52c-0.23 1.36-0.89 5.15-1.99 9.39c-0.69 2.63-1.53 5.42-2.57 7.9c-0.47 1.09-0.96 2.12-1.51 3.07c7.37 0.63 14.89 1.11 22.54 1.42zm-27.75-1.89c0.76-0.72 1.75-2.31 2.58-4.34c1.37-3.27 2.49-7.51 3.23-10.9c0.37-1.69 0.66-3.18 0.85-4.23c0.04-0.25 0.08-0.46 0.12-0.66c-6.31-0.35-12.46-0.82-18.44-1.38c-0.24 1.91-0.69 5.22-1.35 8.77c-0.52 2.73-1.15 5.58-1.95 8.04c-0.33 1.03-0.7 1.98-1.11 2.87c5.27 0.69 10.63 1.3 16.08 1.83zm-20.83-2.49c0.15-0.21 0.32-0.49 0.49-0.84c0.63-1.25 1.28-3.21 1.83-5.38c0.83-3.27 1.48-7.03 1.91-9.95c0.19-1.31 0.34-2.41 0.44-3.27c-5.85-0.61-11.51-1.33-17.03-2.12c-0.2 1.77-0.62 5.01-1.31 8.51c-0.52 2.59-1.19 5.3-2.07 7.67c-0.36 0.95-0.76 1.83-1.21 2.65c5.52 1 11.18 1.91 16.95 2.73zm-21.72-3.64c0.18-0.2 0.38-0.46 0.59-0.81c0.69-1.12 1.39-2.93 1.96-4.96c0.87-3.04 1.5-6.56 1.9-9.3c0.2-1.37 0.35-2.55 0.44-3.38c0.01-0.05 0.01-0.09 0.02-0.14c-5.18-0.8-10.22-1.66-15.09-2.59c-0.46 1.67-1.41 4.93-2.68 8.41c-0.9 2.48-1.96 5.04-3.14 7.22c-0.36 0.65-0.73 1.26-1.12 1.84c5.53 1.34 11.25 2.57 17.12 3.71zm-21.9-4.91c0.15-0.14 0.3-0.29 0.48-0.51c0.8-0.98 1.74-2.66 2.59-4.57c1.29-2.87 2.46-6.27 3.29-8.93c0.39-1.27 0.71-2.35 0.93-3.15c-2.37-0.48-4.7-0.98-6.99-1.48c-0.95 3.01-3.02 9.35-5.96 17.14c1.86 0.51 3.74 1.01 5.65 1.5zm-55.87 53.39c0.36-1.27 0.96-2.99 1.52-4.96c0.61-2.1 1.1-4.42 1.1-6.13c0-0.78-0.1-1.42-0.26-1.83c-0.16-0.42-0.31-0.6-0.52-0.74c-0.8-0.56-2.27-1.02-4.08-1.02c-4.47 0.02-10.79 2.71-15.11 10.88c5.85 2.13 11.83 3.55 17.35 3.8zm-14.65-55.75c-4.59 4.93-8.57 9.04-11.03 11.13l-0.01 0c-2.04 1.72-4.59 3.13-7.28 4.51c-2.19 1.11-4.46 2.2-6.6 3.3c1.34-0.34 2.68-0.61 4.01-0.61c1.37 0 2.79 0.24 4.06 1.05c1.17 0.74 1.95 1.87 2.37 3.01c0.43 1.15 0.57 2.34 0.57 3.51c-0.01 1.81-0.34 3.63-0.76 5.3c0.2-0.12 0.38-0.27 0.59-0.38c2.09-1.16 4.37-2.03 6.8-2.04c0.7 0 1.42 0.08 2.12 0.25c2.24 0.51 3.94 2.04 4.78 3.79c0.87 1.74 1.11 3.64 1.12 5.47c0 0.9-0.08 1.79-0.18 2.66c3.91-3.03 8.16-4.4 11.84-4.39c2.53 0.01 4.81 0.59 6.61 1.8c1.09 0.74 1.82 1.82 2.22 2.91c0.4 1.1 0.53 2.24 0.53 3.38c-0.01 2.84-0.8 5.83-1.55 8.32c-0.31 1.03-0.6 1.93-0.85 2.7c3.16-0.28 6.08-1.01 8.63-2.29c2.83-1.41 5.87-4.1 8.85-7.71c9-10.82 17.37-29.56 22.94-44.13c2.3-5.96 4.13-11.23 5.39-15.01c0.52-1.55 0.93-2.84 1.25-3.83c-12.81-3-24.35-6.39-34.55-9.92c-1.97-0.68-3.89-1.37-5.76-2.06c-0.49 0.56-5.55 6.39-11.95 13.59l0 0c-4.48 5.07-9.59 10.75-14.16 15.67zm-33.53 27.44l-0.6 0.35l-0.2 0.12c-0.14 0.08-0.29 0.1-0.43 0.15c0 0.01 0 0.02 0 0.03c0 0.68 0.16 1.47 0.58 2.42c0.75 1.74 3.05 4.47 6.38 7.27c0.92 0.78 1.94 1.57 3 2.36c0.74-0.86 2.07-2.36 3.82-4.02c0.03-0.18 0.04-0.37 0.12-0.55l0.1-0.22c0.23-0.55 0.84-2.05 1.38-3.85c0.54-1.8 0.99-3.92 0.99-5.57c0-0.81-0.11-1.48-0.28-1.93c-0.18-0.45-0.35-0.64-0.59-0.81c-0.26-0.17-0.8-0.34-1.64-0.34c-1.06 0-2.5 0.27-4 0.74c-2.26 0.7-4.65 1.78-6.44 2.7c-0.9 0.46-1.65 0.87-2.18 1.16zm25.96 22.57c0.22 0.1 0.45 0.18 0.67 0.28c0.46-0.9 0.91-1.81 1.42-2.62c-0.02-0.3 0.02-0.61 0.13-0.91l0.06-0.17c0.31-0.86 1.57-4.92 1.55-8.3c0.01-1.41-0.22-2.65-0.63-3.44c-0.43-0.78-0.83-1.17-1.84-1.45c-0.33-0.08-0.68-0.12-1.06-0.12c-1.29-0.01-2.92 0.52-4.61 1.47c-2.53 1.41-5.1 3.66-6.98 5.56c-0.94 0.94-1.71 1.79-2.24 2.4c4.01 2.63 8.65 5.17 13.53 7.3zm19.54-69.99c2.87-3.24 5.45-6.17 7.35-8.34c0.96-1.1 1.73-1.97 2.31-2.65c-3.18-1.24-6.19-2.48-9.05-3.71c-0.11 0.02-0.22 0.08-0.34 0.09c-2.37 0.12-9.94 0.94-17.84 1.8c3.85 3.5 10.42 8.97 17.56 12.81zm-80.02-20.59c2.38 1.4 6.48 2.87 11.97 3.92c5.49 1.06 12.4 1.75 20.51 1.75c2.5 0 5.12-0.07 7.85-0.2c2.64-0.13 9.14-0.81 16.12-1.56c0.37-0.16 0.76-0.18 1.16-0.13c0.97-0.11 1.95-0.21 2.93-0.32c4.26-0.47 8.45-0.93 11.94-1.29c-4.17-2.01-7.92-3.98-11.2-5.86c-2.24-1.29-4.26-2.53-6.08-3.73c-1.11 0.22-2.49 0.39-4.21 0.56c-7.53 0.72-21.01 1.2-32.78 2.06c-5.87 0.43-11.32 0.95-15.28 1.61c-1.97 0.33-3.58 0.7-4.59 1.06c-0.24 0.08-0.44 0.17-0.6 0.24c0.24 0.38 0.94 1.13 2.27 1.88zm429.61-86.73l0.01-0.02l-0.01 0.02z" /><path class="s11" d="m521.93 39.76l0 0l0 0l0 0.01z" /><path fill-rule="evenodd" class="s11" d="m507.59 100.88c1.69-2.16 4.29-4.75 4.32-4.78c0.72-0.72 1.83-0.86 2.71-0.36c0.05 0.03 1.1 0.63 2.34 1.56c1.24 0.96 2.7 2.13 3.62 3.89c0.38 0.76 0.54 1.57 0.54 2.33c-0.02 1.69-0.69 3.12-1.56 4.31c-0.89 1.18-2 2.14-3.41 2.67c-0.49 0.18-0.96 0.23-1.39 0.23c-1.09-0.01-2-0.33-2.88-0.71c-1.31-0.59-2.53-1.41-3.54-2.24c-0.5-0.42-0.95-0.83-1.33-1.27c-0.19-0.22-0.37-0.45-0.54-0.72c-0.16-0.28-0.34-0.59-0.45-1.15l0-0.01l-0.03-0.42c0.01-0.47 0.1-0.78 0.19-1.04c0.36-0.92 0.83-1.51 1.4-2.27zm3.44 3.27c0.58 0.51 1.4 1.09 2.16 1.5c0.66 0.38 1.3 0.56 1.49 0.57c0.29-0.12 0.86-0.53 1.26-1.09c0.45-0.59 0.68-1.28 0.67-1.62l-0.06-0.31c-0.21-0.5-1.28-1.57-2.29-2.3c-0.15-0.11-0.29-0.21-0.43-0.31c-0.68 0.72-1.49 1.59-2.2 2.44c-0.3 0.36-0.55 0.68-0.76 0.97c0.06 0.05 0.09 0.09 0.15 0.15z" /><path fill-rule="evenodd" class="s11" d="m515.25 64.87c-0.92-0.61-1.26-1.81-0.8-2.81c0.02-0.04 0.68-1.47 1.61-3.01c0.47-0.77 1-1.58 1.63-2.3c0.32-0.36 0.65-0.7 1.07-1.02c0.42-0.31 0.93-0.62 1.66-0.76l0.39 2.22l-0.39-2.22l0.58-0.05c1.06 0.02 1.8 0.4 2.45 0.8c0.96 0.62 1.73 1.41 2.41 2.24c0.67 0.84 1.2 1.65 1.56 2.57c0.14 0.38 0.21 0.78 0.21 1.15c-0.02 1.13-0.47 1.89-0.92 2.52c-0.7 0.93-1.56 1.64-2.45 2.22c-0.45 0.29-0.91 0.53-1.39 0.72c-0.49 0.19-0.97 0.35-1.68 0.36c-0.94-0.03-1.52-0.28-2.16-0.53c-1.82-0.78-3.71-2.07-3.78-2.1zm4.54-2.52c0.4 0.22 0.81 0.41 1.12 0.53l0.25 0.09c0.26-0.1 0.91-0.45 1.35-0.85c0.19-0.16 0.34-0.32 0.46-0.46c-0.24-0.4-0.64-0.97-1.07-1.4c-0.26-0.27-0.52-0.49-0.73-0.64c-0.12 0.13-0.26 0.27-0.4 0.46c-0.45 0.59-0.92 1.37-1.31 2.08c0.11 0.06 0.22 0.12 0.33 0.18z" /><path class="s3" d="m538.31 125.73c-2.64-2.97-4.98-6.81-4.32-10.74c0.69-3.93 5.88-6.9 8.88-4.26c-4.62-6.87-5.19-16.23-1.47-23.61c0.6-1.17 1.44-2.4 2.73-2.64c0.9-0.15 1.8 0.24 2.61 0.69c5.67 2.97 10.44 8.49 16.83 8.64c0.99 0.03 2.04-0.09 2.91-0.6c3.75-2.25 0.81-8.13 1.8-12.39c0.9-3.84 5.22-6.06 9.18-5.94c3.93 0.12 7.59 1.98 11.16 3.63c20.04 9.3 44.22 13.77 63.84 3.69c3.42-1.74 6.75-4.35 9.09-7.41c-0.09 2.76-0.33 5.52-0.75 8.22c-0.72 4.32-1.83 8.85-3.9 12.3c-0.51 0.9-1.02 1.38-1.74 1.98c-0.78 0.57-1.68 1.11-2.64 1.62c-1.92 0.96-4.02 1.83-6.12 2.58c-4.17 1.53-8.52 2.79-12.84 3.9c-2.55-0.09-5.1 0-7.65-0.09l-3.9-0.33c-1.29-0.06-2.58-0.18-3.84-0.39c-5.19-0.54-10.17-2.01-15.06-3.57c-4.86-1.77-9.51-4.05-13.83-6.9c-4.32-2.88-8.4-5.97-12.78-9.36c1.95 5.28 5.97 9.45 10.35 12.78c4.44 3.3 9.33 6.09 14.52 8.1c2.61 0.93 5.22 1.95 7.95 2.49c1.35 0.3 2.7 0.66 4.05 0.93l4.14 0.6c2.73 0.54 5.52 0.39 8.25 0.57c0.87 0 1.77-0.03 2.64-0.06c-5.28 5.37-11.1 10.32-17.49 13.98c-3.96 2.19-8.22 3.99-12.45 3.66c-4.38-0.21-8.91-1.53-13.29-3.09c-8.76-3.24-17.31-7.5-25.32-12.54l-6.06-3.75c-0.42-0.27-1.11-0.6-1.38-0.84c-0.3-0.21-0.63-0.48-0.93-0.84c-0.63-0.63-1.17-1.56-1.65-2.49c-1.83-3.99-2.82-8.76-3.69-13.5c-0.9 4.8-1.11 9.75 0.3 14.79c0.45 1.26 0.93 2.52 1.8 3.75c0.39 0.63 0.96 1.2 1.59 1.71c0.63 0.54 1.05 0.78 1.56 1.17c2.01 1.38 4.11 2.58 6.21 3.78c3.3 1.8 6.63 3.6 9.96 5.34c-3.84 0.21-7.71 0.42-11.55 0.69c-1.56 0.12-3.15 0.21-4.68 0.24c-1.62 0.06-2.85 0.06-4.26-0.33c-2.85-0.72-5.67-2.16-8.43-3.75c1.95 2.55 4.44 4.77 7.56 6.21c1.56 0.72 3.51 1.02 5.07 1.05c1.62 0.12 3.21 0.18 4.8 0.24c1.17 0.03 2.34 0.03 3.54 0.03c-0.21 0.51-0.45 1.08-0.72 1.74c-1.11 2.64-2.82 6.48-5.13 11.25c-4.62 9.54-11.64 22.8-21.33 37.65c-15.06 23.07-36.57 49.92-65.22 72.54c-0.72-0.93-1.71-2.1-2.94-3.39c-1.53-1.59-3.39-3.33-5.52-4.77c36.54-29.91 64.62-69.93 79.56-114.96z" /><path class="s10" d="m455.06 243.66c1.98 1.14 3.93 2.82 5.52 4.44c1.29 1.35 2.34 2.58 3.09 3.51c-3.06 2.34-6.24 4.62-9.45 6.84c-1.11-3.45-2.85-7.29-4.53-10.68c1.8-1.32 3.6-2.7 5.37-4.11z" /><path class="s10" d="m446 250.47c1.77 3.57 3.54 7.59 4.35 10.59c-2.52 1.65-5.07 3.27-7.68 4.86c-1.89-3-3.87-6.15-5.76-9.21c3.09-2.01 6.12-4.08 9.09-6.24z" /><path class="s2" d="m481.34 343.14c-3.42 3.39-8.01 6.6-13.98 9.09c-0.93-1.59-1.89-3.54-2.64-5.52c-1.02-2.67-1.68-5.46-1.68-7.65c0-0.81 0.09-1.53 0.24-2.1c5.76 2.73 11.85 4.8 18.06 6.18z" /><path class="s12" d="m398.09 251.04c8.16-4.26 15.48-8.7 22.05-13.11c0.03 0.06 0.09 0.15 0.12 0.21v0.03c-8.16 11.04-8.13 26.22-4.8 39.51c5.01 20.1 16.98 38.46 33.6 50.79c3.24 2.4 6.63 4.53 10.17 6.42c-0.51 1.32-0.69 2.76-0.69 4.17c0 2.28 0.48 4.62 1.17 6.93c-0.06-0.06-0.09-0.12-0.15-0.18c-2.82-3-6.09-5.85-9.51-7.77c-2.31-1.26-4.68-2.13-7.14-2.16c-1.14 0-2.31 0.21-3.39 0.66c-2.52 1.05-4.29 3-5.52 5.13c-1.26 2.16-2.04 4.53-2.55 6.75c-0.48 2.04-0.72 3.96-0.84 5.46c-2.97-1.44-5.46-3.33-7.41-5.58c-0.42-0.51-1.05-1.5-1.77-2.85c-0.69-1.32-1.5-3.03-2.34-5.01c-1.71-3.96-3.63-9-5.64-14.67c-4.05-11.34-8.46-25.11-12.27-37.56c-4.35-14.1-7.95-26.49-9.48-31.83c-0.21-0.78-0.39-1.38-0.51-1.86c2.34-1.14 4.65-2.28 6.9-3.48z" /><path class="s10" d="m375.92 279.12c5.43-1.65 10.77-3.63 16.02-5.97c1.26 4.32 2.7 9.15 4.26 14.25c-5.88 1.95-11.94 3.69-18.21 5.16c-0.72 0.18-1.44 0.3-2.13 0.45c0.24-2.01 0.33-4.26 0.33-6.66c0-2.34-0.09-4.83-0.27-7.23z" /><path class="s10" d="m352.73 284.49c6.33-1.02 12.63-2.34 18.78-4.08c0.12 2.01 0.18 4.02 0.18 5.94c0.03 3-0.18 5.73-0.57 7.71c-6.3 1.35-12.57 2.61-18.87 3.75c0.33-3.18 0.54-6.42 0.54-9.57c0-1.26-0.03-2.52-0.06-3.75z" /><path class="s10" d="m330.68 294.63c0-2.55-0.09-5.28-0.21-7.86c5.94-0.3 11.88-0.84 17.76-1.62c0.03 1.02 0.06 2.04 0.06 3.09c0 3.48-0.21 7.05-0.63 10.41c-5.79 0.99-11.55 1.83-17.31 2.61c0.03-0.3 0.09-0.6 0.12-0.96c0.15-1.71 0.21-3.63 0.21-5.67z" /><path class="s10" d="m311.3 292.86c0-2.01-0.03-4.02-0.06-5.85c4.89 0.12 9.81 0.12 14.7-0.06c0.15 2.55 0.24 5.22 0.24 7.68c0 1.95-0.06 3.75-0.18 5.28c-0.06 0.72-0.15 1.38-0.27 1.95c-4.95 0.6-9.9 1.17-14.82 1.65c0.09-0.99 0.18-2.07 0.24-3.3c0.12-2.25 0.15-4.8 0.15-7.35z" /><path class="s10" d="m291.32 293.34c0.12-2.7 0.21-5.31 0.27-7.35c5.04 0.42 10.11 0.72 15.15 0.87c0.03 1.89 0.06 3.96 0.06 6c0 2.52-0.03 5.01-0.15 7.14c-0.06 1.59-0.18 2.97-0.33 3.96c-5.34 0.45-10.65 0.87-15.93 1.17c0.12-0.9 0.24-1.86 0.33-2.97c0.27-2.64 0.45-5.79 0.6-8.82z" /><path class="s10" d="m268.43 301.8c0.42-2.82 0.75-5.88 1.02-8.7c0.33-4.05 0.54-7.62 0.63-9.33h0.18c5.58 0.72 11.19 1.35 16.83 1.86c-0.03 1.5-0.12 3.33-0.18 5.28c-0.21 5.07-0.54 11.01-1.05 14.1c-0.03 0.12-0.06 0.24-0.06 0.36c-6.09 0.33-12.12 0.51-18.12 0.6c0.3-1.29 0.54-2.7 0.75-4.17z" /><path class="s3" d="m94.19 328.86c5.13-2.88 9.87-6.39 13.98-10.65c8.55-8.91 13.83-21.51 11.88-33.72c-1.65-10.41-9.33-20.01-19.23-23.07c0.15-0.18 0.24-0.27 0.3-0.33c1.86 0.69 3.78 1.38 5.73 2.04c10.23 3.54 21.75 6.93 34.56 9.93c-0.3 0.99-0.72 2.28-1.23 3.84c-1.26 3.78-3.12 9.03-5.4 15c-5.58 14.58-13.95 33.3-22.95 44.13c-2.97 3.6-6 6.3-8.85 7.71c-2.55 1.26-5.46 2.01-8.61 2.28c0.24-0.78 0.54-1.68 0.84-2.7c0.75-2.49 1.53-5.49 1.56-8.31c0-1.14-0.15-2.28-0.54-3.39c-0.36-1.05-1.02-2.07-2.04-2.76z" /><path class="s2" d="m76.61 336.36c4.23-1.35 8.4-2.91 12.42-4.8c1.05 0.15 1.92 0.48 2.46 0.87c0.21 0.15 0.36 0.33 0.51 0.75c0.15 0.39 0.27 1.05 0.27 1.83c0 1.71-0.51 4.02-1.11 6.12c-0.54 1.98-1.17 3.69-1.5 4.95c-5.52-0.24-11.52-1.65-17.37-3.78c1.29-2.43 2.76-4.41 4.32-5.94z" /><path class="s3" d="m5.03 247.74c17.55 3.87 35.82 4.53 53.61 1.92c3.69-0.54 7.47-1.26 10.83-2.85c2.97 1.65 6.3 3.36 9.93 5.13c-3.48 0.36-7.68 0.84-11.94 1.29c-0.96 0.12-1.95 0.21-2.94 0.33c-0.39-0.06-0.78-0.03-1.14 0.12c-6.99 0.75-13.47 1.44-16.11 1.56c-2.73 0.15-5.34 0.21-7.86 0.21c-8.1 0-15.03-0.69-20.52-1.74c-5.49-1.08-9.57-2.52-11.94-3.93c-1.35-0.75-2.04-1.5-2.28-1.89c0.09-0.03 0.21-0.09 0.36-0.15z" /><path class="s13" d="m435.05 185.13c-1.32 1.65-3.18 3.78-5.64 6.33c-5.79 5.97-14.85 14.1-27.87 22.56c-9.78 6.33-21.78 12.87-36.33 18.87c-3.48-7.02-6.96-15.24-9.99-23.91c27.39-4.86 54.24-12.9 79.83-23.85z" /><path class="s14" d="m350.75 209.76c3.09 8.97 6.66 17.49 10.26 24.78c-5.34 2.1-11.04 4.14-17.07 6.03c-1.62-4.02-6.3-15.24-12.36-28.2c6.42-0.69 12.81-1.56 19.17-2.61z" /><path class="s13" d="m159.62 243.42c1.11-3.03 2.76-7.32 4.77-12.3c4.08-9.99 9.75-22.71 16.08-33.75c1.62-2.82 3.3-5.52 5.01-8.04c37.44 20.91 82.05 26.94 125.07 24.75c5.46-0.27 10.89-0.69 16.32-1.2c5.58 11.88 10.08 22.53 12.21 27.66c0.21 0.51 0.39 0.96 0.54 1.38c-19.65 5.88-42.75 10.53-69.81 12.84c-11.01 0.93-21.66 1.38-31.89 1.38c-30.3 0-57-3.78-79.62-9.09c0-0.03 0-0.06 0.03-0.09c0.27-0.81 0.72-2.04 1.29-3.54z" /><path class="s14" d="m159.14 182.94c1.14-3.54 1.95-7.02 2.25-10.44c5.1 4.56 10.68 8.64 16.41 12.27c1.26 0.78 2.52 1.56 3.78 2.28c-1.71 2.55-3.39 5.25-5.01 8.07c-4.32 7.56-8.31 15.78-11.73 23.43c-5.82 13.11-9.9 24.45-10.95 27.42c-7.95-1.98-15.39-4.14-22.23-6.39c3.48-6.66 14.22-27.33 21.33-42.39c2.88-6.06 5.13-11.13 6.15-14.25z" /><path class="s13" d="m120.92 110.07c-0.09-0.06-0.12-0.06-0.21-0.12c5.97-7.56 12.57-14.91 19.83-21.9c-3.6 9.36-5.67 19.32-5.76 29.25c-5.97-3.03-11.1-5.79-13.86-7.23z" /><path class="s13" d="m132.83 121.35c0.69 0.36 1.38 0.69 2.1 1.05c0.36 5.88 1.44 11.7 3.36 17.28c0.24 0.66 0.48 1.32 0.75 1.95c-3.81-2.34-7.89-4.74-11.79-7.02c-7.56-4.41-14.46-8.25-17.28-9.81c2.52-3.75 5.13-7.5 7.95-11.22c0.12 0.06 0.18 0.09 0.3 0.15c0.84 0.45 2.04 1.08 3.48 1.83c2.88 1.53 6.78 3.57 11.13 5.79z" /><path class="s13" d="m85.16 172.05c5.31-13.5 12.66-28.53 22.29-43.5c0.57 0.3 1.29 0.72 2.25 1.23c2.04 1.17 4.92 2.79 8.22 4.65c6.63 3.78 14.94 8.61 21.72 12.87c0.96 0.6 1.89 1.2 2.79 1.77c3.72 7.14 8.76 13.56 14.55 19.29c0.03 0.42 0.06 0.84 0.06 1.26c0 3.66-0.81 7.71-2.19 11.94c-0.63 1.98-2.07 5.34-3.93 9.42c-1.86 4.08-4.17 8.88-6.6 13.83c-4.89 9.93-10.32 20.52-13.89 27.39c-1.35 2.61-2.43 4.65-3.09 5.94c-30.21-10.38-48.63-21.9-53.01-24.78c0.6-8.88 3.99-23.82 10.83-41.31z" /><path class="s14" d="m54.68 213.9c1.14-2.52 2.67-4.68 4.05-6.12c0.9-0.93 1.77-1.56 2.19-1.71c1.41-0.66 3.57-1.26 5.64-1.71c1.71-0.36 3.33-0.63 4.56-0.84c-0.45 2.43-0.81 4.71-1.02 6.75c-0.9-0.75-1.86-1.56-2.67-2.49c-0.45-0.51-1.05-0.78-1.68-0.78c-0.51 0-1.05 0.18-1.47 0.57c-0.96 0.81-1.05 2.22-0.21 3.15c2.79 3.18 6.27 5.4 6.66 5.64c0.99 0.69 63.33 44.25 167.19 44.28c10.35 0 21.12-0.45 32.28-1.41c64.35-5.49 107.1-24.12 133.77-41.43c26.7-17.34 37.26-33.36 37.41-33.57c0.06-0.09 0.09-0.18 0.12-0.27c-1.53 17.22-14.07 31.56-27.33 42.75c-23.16 19.53-50.13 33.57-78.87 43.14c-19.23 4.83-40.86 8.19-64.92 9.39c-8.85 0.45-17.49 0.66-25.86 0.66c-50.64 0-92.19-7.53-123.42-16.89c-31.23-9.36-52.2-20.64-61.38-27.9c-2.61-2.04-4.26-3.81-4.77-4.74c-1.56-2.7-2.19-5.43-2.19-8.1c0-2.94 0.78-5.82 1.92-8.37z" /></g></svg>